<svg xmlns="http://www.w3.org/2000/svg" xmlns:xlink="http://www.w3.org/1999/xlink" id="Capa_1" data-name="Capa 1" viewBox="0 0 4835.37 3350.15"><defs><style>      .cls-1 {        fill: #004a90;        stroke: #fff;        stroke-miterlimit: 10;        stroke-width: .5px;      }      .cls-2 {        fill: none;      }      .cls-2, .cls-3, .cls-4, .cls-5, .cls-6 {        stroke-width: 0px;      }      .cls-3 {        fill: #fbba00;      }      .cls-7 {        clip-path: url(#clippath);      }      .cls-4 {        fill: url(#radial-gradient);      }      .cls-5 {        fill: #054570;      }      .cls-6 {        fill: #fff;      }    </style><clipPath id="clippath"><path class="cls-2" d="M1184.79,1711.05c0,300.21,108.56,574.91,288.28,787.52,406.68-93.99,762.51-100.25,943.56,301.34,178.31-395.5,526.13-395.42,925.09-305.56,177.59-212,284.63-485.11,284.63-783.3,0-674.22-546.56-1220.78-1220.78-1220.78s-1220.79,546.56-1220.79,1220.78"></path></clipPath><radialGradient id="radial-gradient" cx="3239.03" cy="1903.82" fx="3239.03" fy="1903.82" r="5.76" gradientTransform="translate(-684200.8 405281.17) scale(211.98 -211.98)" gradientUnits="userSpaceOnUse"><stop offset="0" stop-color="#5ec3f0"></stop><stop offset="1" stop-color="#004a90"></stop></radialGradient></defs><path class="cls-1" d="M3862.1,2632.26c11.63,3.07,23.26,6.13,34.88,9.15,0-.01,0-.02,0-.03-11.63-3-23.26-6.05-34.89-9.12M962.05,2634.67c600.74-158.12,1200.19-399.04,1454.58,165.24,252.25-559.54,843.8-327.37,1439.45-169.25,168.08-265.09,265.79-579.2,265.79-916.32C4121.87,767.68,3354.45.25,2407.79.25S693.69,767.68,693.69,1714.34c0,338.83,98.71,654.4,268.36,920.34M932.46,2642.35s.01.03.02.04c9.58-2.47,19.16-4.97,28.74-7.5-9.58,2.52-19.18,4.99-28.76,7.46"></path><path class="cls-6" d="M3746.49,2322.15l34.95,30.78c9.69,8.06,22.64,18.01,32.75,25.93l-.41.85c-12.37-2.4-28.41-5.85-41.19-8.11l-46.09-7.3,20-42.14ZM3691.17,2355.5l-55.92-8.5-22,46.39,218.82,31.02,26.71-56.29-163.01-148.7-21.2,44.69,42.63,36.5-26.03,54.88ZM3912.67,2232.21l-198.59-71.32-16.08,44.79,198.59,71.33,16.08-44.79ZM3840.68,2059.14l-3.97,15.79c-5.78,23.08-18.63,39.55-39.28,34.38-21.56-5.41-25.11-25.98-19.86-46.94,1.97-7.9,3.34-13.37,5.4-17.69l57.7,14.46ZM3921.15,2079.31c0,3.87-.84,9.79-3.43,20.12-5.26,20.95-16.42,30.74-31.91,26.86-15.19-3.81-22.01-19.08-15.85-43.67l3.81-15.18,47.37,11.87ZM3762.58,1990.83c-4.1,9.94-9.89,26.56-15.6,49.35-10.2,40.69-9.76,67.26-1.65,85.11,6.83,15.27,19.28,27.42,38.11,32.14,26.41,6.62,48.67-6.2,60.6-28.06l.6.16c3.11,24.99,17.14,39.79,35.06,44.29,18.83,4.72,35.31-1.8,46.48-14.17,12.54-12.67,19.62-29.3,26.69-57.54,5.86-23.38,9.82-48.21,10.44-60.96l-200.73-50.32ZM3774.75,1921.18l-4.4,46.13,211.13,8.77,5.94-62.34-67.71-28.77c-22.7-9.39-49.75-19.2-73.53-27.13l.12-1.25c25.06-2.32,51.84-6.07,76.8-10.61l72.08-13.9,6.03-63.26-208.79-33.4-4.18,43.94,79.4,11.65c26.07,3.73,58.36,8.07,86.63,11.7l-.06.63c-28.24,2.65-58.51,6.69-83.78,11.21l-83.48,14.69-3.52,37.09,79.53,33.35c23.85,10.45,52.94,22.03,79.09,31.43l-.06.63c-30.85-2.94-61.17-4.88-86.51-6.35l-80.73-4.22ZM3819.5,1617.29c-2.23-31.86,27.37-53.06,67.03-55.83,39.36-2.74,72.5,13.46,74.79,46.25,2.28,32.8-28.96,52.86-66.74,55.49-41.23,2.87-72.81-13.44-75.05-45.61l-.02-.31ZM3781.58,1618.04c4.29,61.53,48.72,100.17,118.06,95.33,58.1-4.05,104.04-42.72,99.53-107.37-4.31-61.84-54.3-99.15-117.39-94.75-59.97,4.17-104.56,44.32-100.22,106.47l.02.31ZM3752.42,1395.28l25.55,128.98,39.3-7.78-16.3-82.3,167.68-33.22-9.25-46.68-206.99,41ZM3751.54,1268.66c-10.05-30.31,13.36-58.19,51.1-70.7,37.44-12.41,73.57-4.93,83.91,26.27,10.34,31.2-14.95,58.39-50.9,70.31-39.23,13-73.86,5.03-84.01-25.58l-.09-.3ZM3714.98,1278.8c19.41,58.55,72.04,84.96,138.01,63.09,55.28-18.32,90.2-67.17,69.81-128.69-19.51-58.84-77.19-82.59-137.22-62.69-57.04,18.91-90.3,68.85-70.7,127.99l.09.29ZM3721.96,1158.03c-7.92-6.93-17.33-19.75-23.8-32.97-18.58-37.96-5.69-72.16,32-90.6,42.18-20.64,75.64-4.26,92.16,29.49,7.57,15.47,10.11,29.21,10.58,39.43l38.43-7.65c-.06-9.38-3.82-28.46-14.69-50.67-28.07-57.37-86.35-86.01-150.75-54.49-53.99,26.42-78.53,80.26-46.47,145.78,11.14,22.78,24.45,38.57,31.82,44.38l30.72-22.7ZM3681.86,902.04l-44.62-63.55,35.87-25.18,47.31,67.38,32.03-22.49-74.66-106.33-172.7,121.25,77.18,109.92,32.03-22.48-49.83-70.97,40.99-28.79,44.62,63.54,31.77-22.3ZM3529.43,635.97c3.44,2.36,9.02,7.02,16.01,14.62,27.98,30.41,28.3,65-3.95,94.67-37.1,34.12-73.9,29.27-103.13-2.98-3.82-4.15-8.48-9.22-10.54-12.85l101.62-93.47ZM3369.79,718.15c6.69,9.59,17.62,23.78,34.36,41.98,27.98,30.42,57.54,49.6,86.18,53.46,26.24,3.09,56.7-4.95,86.43-32.29,27.65-25.44,37.22-52.95,34.36-80.1-2.5-24.92-14.77-49.36-42.11-79.09-16.11-17.51-32.73-33.27-46.9-44.05l-152.31,140.1ZM3278.3,527.6l37.26-27.94c9.87-7.84,22.26-18.5,32.06-26.78l.75.57c-4.87,11.62-11.52,26.62-16.34,38.68l-16.54,43.63-37.19-28.16ZM3299.69,588.56l-19.72,53.01,40.93,31,74.97-207.91-49.67-37.61-178.79,129.29,39.43,29.86,44.42-34.29,48.42,36.66ZM3131.43,336.32c4.02,1.15,10.78,3.8,19.83,8.78,36.19,19.94,47.5,52.63,26.34,91.01-24.33,44.15-60.76,51.23-98.72,29.95-4.94-2.72-10.97-6.04-14.08-8.83l66.64-120.92ZM3006.18,464.98c9.39,6.96,24.26,16.95,45.92,28.89,36.2,19.94,70.31,28.74,98.7,23.29,25.85-5.41,52.19-22.71,71.68-58.08,18.14-32.91,18.46-62.04,7.12-86.87-10.29-22.83-29.7-42.1-65.07-61.59-20.84-11.48-41.61-21.14-58.48-26.87l-99.88,181.24ZM3018.44,242.59l-83.39,193.84,43.72,18.8,83.38-193.83-43.71-18.81ZM2784.15,383.48l19.25-60.57c10.43-32.83,18.84-61.36,25.89-88.68l1.2.37c2.06,26.61,7.32,56.54,12.34,82.11l18.31,91.23,47.73,15.18,63.91-201.1-41.76-13.27-18.59,58.48c-9.67,30.43-17.41,57.87-23.16,85.27l-.6-.19c-2.04-25.62-5.71-54.38-10.91-79.35l-18.35-86.97-53.1-16.88-63.92,201.1,41.76,13.28ZM2577.21,127.99l-18.51,116.25c-10.54,66.16,15.39,100.41,67.95,108.78,54.41,8.67,91.76-16.77,102-81.08l18.61-116.87-47.01-7.49-19.04,119.65c-5.91,37.1-22.27,52.24-47.01,48.3-23.81-3.79-34.82-24.24-29.05-60.42l19.04-119.65-46.99-7.48ZM2346.05,332.61l131.49-.83-.25-40.07-83.91.53-1.08-170.93-47.59.3,1.33,211.01ZM2197.38,257.25l6.8-46.07c1.49-12.52,2.79-28.8,3.92-41.58l.93-.12c4.72,11.69,10.56,27.01,15.63,38.97l18.96,42.64-46.24,6.18ZM2255.48,285.5l23.31,51.53,50.89-6.79-93.09-200.46-61.75,8.24-36,217.69,49.03-6.55,7.41-55.63,60.2-8.04ZM2061.08,376.05l46.16-11.57-41.56-165.81,55.88-14.01-9.74-38.87-157.31,39.43,9.74,38.87,55.27-13.85,41.56,165.81ZM1862.53,431.56c13.45,2,38.04-.16,60.62-8.59,54.26-20.25,68.98-57.82,56.62-90.96-10.4-27.87-33.32-40.03-73.04-39.91-29.43-.05-42.35-1.57-47.06-14.18-3.73-9.98,2.27-22.57,21.63-29.79,19.07-7.12,35.52-6.9,44.56-5.94l-3.38-39.5c-13.81-1.19-31.59.42-54.17,8.85-46.34,17.29-65.27,53.43-52.69,87.16,10.73,28.75,39.22,38.83,76.45,38.31,26.82-.65,38.84,2.88,43.43,15.2,4.82,12.9-2.86,25.46-23.39,33.12-19.07,7.12-40.14,7.97-54.17,6.18l4.59,40.06ZM1749.1,460.01c-28.15,15.07-59.62-3.24-78.38-38.29-18.62-34.78-17.41-71.64,11.57-87.17,28.98-15.51,60.08,4.77,77.96,38.17,19.51,36.43,17.56,71.92-10.87,87.14l-.28.15ZM1765.32,494.29c54.37-29.11,71.43-85.48,38.62-146.75-27.48-51.33-81.57-77.41-138.71-46.83-54.65,29.26-68.22,90.15-38.37,145.9,28.38,52.99,83.26,77.23,138.18,47.82l.27-.14ZM1644.7,507.13c-5.49,8.97-16.55,20.41-28.49,29.01-34.29,24.7-70.17,17.74-94.69-16.3-27.45-38.11-16.93-73.85,13.56-95.81,13.98-10.06,27.1-14.88,37.1-17.06l-14.01-36.6c-9.23,1.64-27.41,8.55-47.48,23.01-51.82,37.33-70.25,99.6-28.35,157.78,35.13,48.77,92.32,63.91,151.52,21.28,20.58-14.82,33.91-30.6,38.39-38.84l-27.55-26.46ZM1440.49,552.59l-57.14,52.56-29.68-32.26,60.6-55.74-26.49-28.8-95.62,87.96,142.85,155.3,98.85-90.92-26.49-28.8-63.82,58.71-33.91-36.87,57.15-52.57-26.28-28.57ZM1355.16,818.99l31.37-35.79-128.53-112.69,37.97-43.31-30.13-26.42-106.91,121.94,30.13,26.42,37.57-42.84,128.53,112.69ZM1236.33,980.53l-52.88-35.26c-28.65-19.11-53.75-35.09-78.06-49.42l.7-1.04c26.13,5.38,56.35,8.6,82.31,10.87l92.73,7.65,27.79-41.67-175.56-117.08-24.32,36.47,51.06,34.05c26.56,17.71,50.79,32.74,75.54,45.85l-.35.52c-25.18-5.12-53.83-9.56-79.27-11.47l-88.66-6.44-30.92,46.37,175.55,117.07,24.32-36.47ZM1083.07,986.52l-34.13,69.74-39.37-19.27,36.19-73.96-35.15-17.2-57.11,116.7,189.53,92.75,59.03-120.63-35.15-17.2-38.12,77.89-44.99-22.01,34.12-69.74-34.86-17.06ZM934.98,1210.65c.29-3.56,1.92-9.96,5.09-18.8,8.15-22.69,23.6-31.44,41.87-24.88,20.04,7.2,26.83,26.27,18.25,50.14-2.43,6.78-4.31,11.09-6.57,14.6l-58.64-21.06ZM1083.41,1314.19l15.98-44.48-71.3-25.61c2.36-3.81,4.56-9.01,6.68-14.9,9.53-26.52,10.9-51.63,2.26-72.04-6.56-16-20.84-28.11-40.58-35.2-19.44-6.98-38.91-4.66-53.29,4.82-15.66,9.34-28.06,27.18-38,54.87-9.85,27.4-15.06,47.48-17.68,62.18l195.94,70.37ZM954.91,1482.56l-41.95-20.25c-11.5-5.16-26.65-11.26-38.51-16.16l.16-.92c12.57-1.02,28.94-2.01,41.87-3.27l46.35-5.37-7.91,45.98ZM999.22,1435.54l56.14-6.85,8.71-50.6-219.11,29-10.57,61.4,197.01,99.36,8.39-48.75-50.88-23.69,10.31-59.86ZM818.9,1614.45l210.5,14.67,3.31-47.47-210.5-14.68-3.31,47.48ZM1017.44,1794.13c6.5-11.94,12.92-35.78,12.77-59.88-.37-57.92-30.59-84.66-65.97-84.43-29.74.19-49.04,17.53-62.58,54.87-10.16,27.62-16.03,39.24-29.49,39.33-10.64.07-20.42-9.89-20.54-30.56-.13-20.35,5.72-35.73,9.74-43.89l-38.25-10.4c-5.87,12.56-10.46,29.8-10.3,53.91.31,49.47,27.74,79.66,63.74,79.43,30.68-.19,49.94-23.48,62.25-58.62,8.61-25.41,16.05-35.48,29.21-35.56,13.77-.09,22.93,11.43,23.06,33.35.13,20.35-6.32,40.42-12.81,52.99l39.2,9.46ZM902.02,1830.45l9.31,77.08-43.51,5.25-9.87-81.75-38.85,4.7,15.57,128.99,209.49-25.29-16.1-133.34-38.85,4.69,10.4,86.1-49.73,6-9.31-77.08-38.54,4.65ZM1076.24,2083.42l-30.37-127.93-38.99,9.25,19.38,81.63-166.31,39.49,11,46.3,205.3-48.75ZM967.9,2150.53l27.48,73.63,34.9-13.03-11.38-30.5,41.65-15.55c2.78,2.98,7.01,10.75,10.74,20.72,13.68,36.67-.45,71.35-41.51,86.67-42.82,15.98-74.56-4.59-88.46-41.84-8.1-21.71-9.5-36.22-8.57-48.94l-39.58,4.08c-.78,11.32,1.56,32.83,11.08,58.36,24.19,64.82,79.58,98.62,145.39,74.39,29.04-10.83,51.13-30.44,61.76-54.79,10.52-24.65,9.87-54.14-3.59-90.22-9.75-26.1-25.94-49.8-35.78-61.84l-104.13,38.86ZM988.27,2434.26l189.53-92.76-20.92-42.74-189.53,92.75,20.92,42.74Z"></path><g class="cls-7"><rect class="cls-4" x="1184.79" y="490.27" width="2441.56" height="2309.64"></rect></g><g><path class="cls-5" d="M3796.22,3320.81c6.38,0,10.46-5.35,10.46-11.48,0-6.63-4.08-11.48-10.2-11.48s-10.46,4.84-10.46,11.48c-.26,6.12,4.08,11.48,9.95,11.48h.26ZM3719.43,3202.71c32.14,0,44.9,31.12,44.9,53.56,0,31.38-20.16,54.33-45.67,54.33s-44.64-22.96-44.64-53.57c0-26.27,14.28-54.33,45.41-54.33M3719.68,3192.75c-30.36,0-57.9,22.96-57.9,65.05,0,38.26,24.49,63,56.12,63,27.29,0,58.67-19.38,58.67-65.29,0-37.5-22.96-62.76-56.89-62.76M3473.27,3318h11.99v-75.5c0-4.09.76-8.42,2.05-11.74,4.58-14.28,17.35-27.55,33.93-27.55,19.64,0,30.36,16.07,30.36,38.26v76.52h11.99v-78.56c0-4.34,1.02-8.42,2.3-12,4.59-13.01,16.84-24.23,32.14-24.23,21.18,0,31.88,16.32,31.88,43.87v70.91h12v-72.19c0-46.43-27.81-53.06-39.79-53.06-13.01,0-21.43,3.57-29.34,10.2-4.59,3.83-8.92,9.19-12.5,16.58h-.52c-5.1-15.56-18.11-26.79-35.2-26.79-20.15,0-31.89,10.46-39.54,24.49h-.51l-1.02-21.68h-11.23c.51,9.69,1.02,18.11,1.02,29.33v93.1ZM3378.88,3312.14c8.17,5.1,19.14,8.67,31.12,8.67,25,0,41.33-14.28,41.33-35.2,0-18.62-11.74-28.57-31.63-36.22-16.58-6.88-25.26-12.5-25.26-25.25,0-11.23,8.16-21.18,23.73-21.18,12.24,0,20.15,4.34,24.23,7.4l4.85-9.95c-6.38-4.34-15.81-7.66-27.04-7.66-23.98,0-37.76,15.57-37.76,33.16,0,14.8,10.97,25.77,31.13,33.42,17.6,7.14,25.77,14.28,25.77,27.81,0,12.75-9.19,23.21-28.57,23.21-10.97,0-20.92-4.34-27.55-8.42l-4.34,10.2ZM3351.33,3149.9c-5.61,0-9.95,5.1-9.95,10.71s3.83,10.46,9.44,10.46c6.38,0,10.2-4.85,10.2-10.46s-3.83-10.71-9.7-10.71M3357.2,3195.56h-11.99v122.45h11.99v-122.45ZM3281.18,3173.12v22.45h-20.66v9.69h20.66v77.54c0,12.5,2.04,22.7,7.65,29.08,4.59,5.86,11.99,8.92,20.92,8.92,7.4,0,13.01-1.27,17.1-3.06l-1.53-9.44c-3.06,1.02-7.66,2.04-14.03,2.04-13.01,0-17.85-9.95-17.85-25.51v-79.58h34.95v-9.69h-34.95v-27.04l-12.24,4.59ZM3245.47,3195.56h-11.99v76.27c0,4.84-1.27,9.69-2.55,13.51-5.1,12.25-18.11,24.74-35.97,24.74-24.24,0-32.65-19.13-32.65-45.66v-68.87h-11.99v71.16c0,46.43,26.02,54.08,41.59,54.08,21.94,0,35.97-13.26,42.09-24.49h.51l.77,21.68h11.22c-.51-9.44-1.02-19.13-1.02-29.85v-92.59ZM3109.76,3278.72c0,2.3-.52,4.85-1.27,7.4-4.34,11.99-15.83,24.49-36.22,24.49-12.76,0-24.49-7.91-24.49-25.51,0-29.33,35.2-33.41,61.98-32.65v26.27ZM3121.75,3241.22c0-21.93-6.63-48.47-42.09-48.47-10.96,0-24.74,3.06-35.71,10.46l3.83,8.93c8.67-6.38,19.89-9.19,30.61-9.19,29.08-.25,31.38,23.98,31.38,36.23v3.06c-49.74-.51-74.74,16.58-74.74,44.9,0,16.32,11.48,33.67,35.97,33.67,19.64,0,33.16-10.97,39.02-20.41h.77l1.79,17.61h10.97c-1.28-9.44-1.79-19.39-1.79-29.08v-47.7ZM2927.12,3246.33c0-4.34.77-7.65,1.53-10.71,5.87-20.41,22.96-32.91,40.81-32.91,27.81,0,43.12,25,43.12,53.06,0,31.88-16.07,54.84-44.13,54.84-19.14,0-34.95-12.25-40.31-30.86-.51-3.06-1.02-6.13-1.02-8.93v-24.48ZM2915.13,3289.44c0,9.18-.52,19.89-1.02,28.57h10.97l.77-22.19h.51c9.69,17.09,24.24,25,43.87,25,26.79,0,54.6-21.68,54.6-65.29,0-36.99-21.43-62.76-52.3-62.76-21.68,0-36.74,9.69-44.9,25.51h-.51v-81.37h-11.98v152.54ZM2742.94,3318h11.99v-75.76c0-3.83.77-7.91,1.78-10.97,4.85-15.81,19.39-28.06,36.74-28.06,25.25,0,33.93,20.15,33.93,42.34v72.44h11.98v-73.46c0-45.92-30.86-51.79-42.6-51.79-20.15,0-35.46,11.23-42.09,25.01h-.51l-1.02-22.2h-11.22c.51,9.69,1.01,18.11,1.01,29.33v93.1ZM2711.82,3195.56h-11.99v76.27c0,4.84-1.27,9.69-2.55,13.51-5.1,12.25-18.11,24.74-35.97,24.74-24.24,0-32.66-19.13-32.66-45.66v-68.87h-11.98v71.16c0,46.43,26.02,54.08,41.58,54.08,21.94,0,35.97-13.26,42.09-24.49h.51l.76,21.68h11.22c-.51-9.44-1.01-19.13-1.01-29.85v-92.59ZM2533.51,3348.87c4.08-7.14,15.05-36.22,19.64-55.35l-16.07,2.55c-2.3,15.82-9.18,43.37-13.27,54.08l9.7-1.28ZM2429.43,3245.82c2.05-18.88,13.78-43.11,40.82-43.11,29.59,0,36.73,26.02,36.48,43.11h-77.3ZM2518.98,3255.51c.51-2.04.51-4.09.51-7.4,0-17.61-7.66-55.36-47.7-55.36-31.63,0-55.1,25.51-55.1,66.33,0,35.96,21.94,61.72,57.14,61.72,21.43,0,33.93-5.35,38.52-7.91l-3.06-9.69c-6.88,3.31-16.07,6.88-33.93,6.88-25.26,0-46.68-15.3-46.68-54.58h90.31ZM2386.84,3318v-112.75h32.9v-9.69h-32.9v-6.89c0-23.47,4.85-44.39,27.55-44.39,7.4,0,12.25,1.79,15.56,3.58l3.83-9.7c-3.57-2.04-10.46-4.08-18.37-4.08-9.44,0-19.64,3.31-27.04,10.71-9.96,9.95-13.53,25.25-13.53,44.14v6.63h-17.6v9.69h17.6v112.75h12ZM2286.84,3278.72c0,2.3-.51,4.85-1.28,7.4-4.34,11.99-15.81,24.49-36.22,24.49-12.75,0-24.49-7.91-24.49-25.51,0-29.33,35.21-33.41,61.99-32.65v26.27ZM2298.83,3241.22c0-21.93-6.63-48.47-42.09-48.47-10.97,0-24.75,3.06-35.71,10.46l3.82,8.93c8.67-6.38,19.9-9.19,30.62-9.19,29.08-.25,31.38,23.98,31.38,36.23v3.06c-49.75-.51-74.75,16.58-74.75,44.9,0,16.32,11.48,33.67,35.97,33.67,19.64,0,33.16-10.97,39.03-20.41h.77l1.79,17.61h10.96c-1.27-9.44-1.78-19.39-1.78-29.08v-47.7ZM2096.28,3318h11.99v-75.76c0-3.83.77-7.91,1.78-10.97,4.85-15.81,19.39-28.06,36.74-28.06,25.25,0,33.93,20.15,33.93,42.34v72.44h11.98v-73.46c0-45.92-30.86-51.79-42.6-51.79-20.15,0-35.46,11.23-42.09,25.01h-.51l-1.02-22.2h-11.22c.51,9.69,1.02,18.11,1.02,29.33v93.1ZM2065.17,3195.56h-11.99v76.27c0,4.84-1.28,9.69-2.55,13.51-5.1,12.25-18.11,24.74-35.97,24.74-24.24,0-32.65-19.13-32.65-45.66v-68.87h-11.99v71.16c0,46.43,26.02,54.08,41.58,54.08,21.94,0,35.97-13.26,42.09-24.49h.51l.76,21.68h11.23c-.52-9.44-1.02-19.13-1.02-29.85v-92.59ZM1886.86,3348.87c4.08-7.14,15.05-36.22,19.64-55.35l-16.07,2.55c-2.3,15.82-9.18,43.37-13.26,54.08l9.69-1.28ZM1837.62,3318h11.99v-67.59c0-4.08.51-8.17,1.02-11.74,3.32-19.64,15.31-34.19,32.15-34.19,2.3,0,4.08,0,5.87.51v-11.73c-1.53-.26-3.32-.51-4.85-.51-16.83,0-29.59,12.24-34.95,27.55h-.51l-.51-24.74h-11.22c.51,11.73,1.02,24.49,1.02,36.73v85.7ZM1759.56,3202.71c32.15,0,44.9,31.12,44.9,53.56,0,31.38-20.15,54.33-45.66,54.33s-44.64-22.96-44.64-53.57c0-26.27,14.28-54.33,45.4-54.33M1759.82,3192.75c-30.36,0-57.91,22.96-57.91,65.05,0,38.26,24.49,63,56.13,63,27.3,0,58.67-19.38,58.67-65.29,0-37.5-22.96-62.76-56.89-62.76M1585.59,3318h11.99v-75.76c0-3.83.77-7.91,1.78-10.97,4.85-15.81,19.39-28.06,36.73-28.06,25.25,0,33.93,20.15,33.93,42.34v72.44h11.98v-73.46c0-45.92-30.86-51.79-42.6-51.79-20.15,0-35.46,11.23-42.09,25.01h-.51l-1.02-22.2h-11.22c.51,9.69,1.02,18.11,1.02,29.33v93.1ZM1613.4,3171.84c.77-6.63,2.81-11.48,7.14-11.48,3.06,0,6.13,1.79,11.74,4.85,5.1,2.81,9.69,5.1,14.29,5.1,10.97,0,15.31-8.41,15.31-21.43h-8.42c-.51,8.17-3.31,10.46-7.14,10.46-3.31,0-6.63-1.79-10.71-3.83-6.63-3.57-10.46-5.87-15.31-5.87-9.69,0-15.56,8.67-15.3,22.19h8.42ZM1474.63,3245.82c2.04-18.88,13.77-43.11,40.81-43.11,29.59,0,36.73,26.02,36.48,43.11h-77.29ZM1564.17,3255.51c.51-2.04.51-4.09.51-7.4,0-17.61-7.65-55.36-47.7-55.36-31.63,0-55.1,25.51-55.1,66.33,0,35.96,21.94,61.72,57.14,61.72,21.43,0,33.92-5.35,38.52-7.91l-3.06-9.69c-6.89,3.31-16.07,6.88-33.93,6.88-25.25,0-46.68-15.3-46.68-54.58h90.31ZM1352.69,3309.07c8.93,6.63,26.28,11.73,41.07,11.73,36.73,0,54.59-22.45,54.59-47.44s-15.05-38.52-43.36-50c-24.75-9.7-35.72-19.39-35.72-38.52,0-13.52,9.44-31.37,37.25-31.37,14.79,0,25.76,4.85,30.35,8.16l4.59-10.2c-5.87-3.83-18.11-8.16-34.18-8.16-29.08,0-50,18.36-50,43.62,0,23.47,16.58,37.75,44.38,47.44,24.75,9.69,34.69,20.92,34.69,40.3,0,21.17-15.81,35.72-41.32,35.72-14.54,0-28.07-4.85-37.76-11.48l-4.59,10.2ZM1190.46,3318h11.99v-75.76c0-3.83.76-7.91,1.78-10.97,4.85-15.81,19.39-28.06,36.73-28.06,25.25,0,33.93,20.15,33.93,42.34v72.44h11.99v-73.46c0-45.92-30.87-51.79-42.6-51.79-20.15,0-35.46,11.23-42.09,25.01h-.51l-1.02-22.2h-11.22c.51,9.69,1.02,18.11,1.02,29.33v93.1ZM1041.23,3146.07v104.59c0,52.55,27.04,70.15,57.14,70.15,32.4,0,60.97-19.38,60.97-72.18v-102.55h-12.25v103.82c0,42.08-19.64,60.46-47.96,60.46-25.51,0-45.92-16.84-45.92-60.46v-103.82h-11.99Z"></path><path class="cls-3" d="M2416.33,2895.15c154.42-154.06,308.06-277.9,588.63-277.9,554,0,1049.25,307.41,1662.35,174.43-620,103.47-1151.93-204.65-1663.99-204.65-275.46,0-446.64,116.94-586.98,308.12"></path><path class="cls-3" d="M4835.37,2878.63c-272.22,39.54-501.5,29.3-866.33-6.86-456.98-45.28-889.31-124.21-1204.45-19.35-196.77,65.46-268.1,99.12-346.9,99.42-78.8-.3-150.12-33.95-346.9-99.42-514.77-171.27-1357.38,141.29-2070.79,26.21,628.39,189.27,1376.03-97.08,2044.58,65.54,229.16,55.73,265.84,95.22,372.32,95.2v.02c.27.01.51-.01.78-.01s.51.02.78.01v-.02c106.49.01,143.17-39.48,372.32-95.2,668.56-162.62,1416.2,123.74,2044.58-65.54"></path><path class="cls-3" d="M253.87,2727.09c459.89,150.08,1147.81-274.35,1691.45-203.09,176.48,23.13,356.54,99.03,471.1,276.41-357.22-793.67-1396.1,3.43-2162.55-73.32"></path><path class="cls-3" d="M4579.52,2727.09c-459.89,150.08-1147.81-274.35-1691.45-203.09-176.48,23.13-356.53,99.03-471.09,276.41,357.21-793.67,1396.09,3.43,2162.55-73.32"></path><path class="cls-3" d="M2416.33,2895.15c-154.42-154.06-308.06-277.9-588.62-277.9-554.01,0-1049.25,307.41-1662.35,174.43,620.01,103.47,1151.93-204.65,1664-204.65,275.46,0,446.64,116.94,586.98,308.12"></path><path class="cls-3" d="M2537.87,2860.18c103.62-101.04,234.88-179.88,446.68-179.88,140.51,0,385.74,38.26,779.51,103.89-317.78-31.59-484.87-82.89-780.62-82.89-207.24,0-373.03,96.71-445.57,158.88"></path><path class="cls-3" d="M2294.57,2860.18c-103.62-101.04-234.88-179.88-446.68-179.88-140.52,0-385.75,38.26-779.51,103.89,317.78-31.59,484.87-82.89,780.62-82.89,207.24,0,373.04,96.71,445.57,158.88"></path><path class="cls-6" d="M1431.33,1258.75c2.13-4.99,6.41-10.7,6.41-10.7,0,0,3.57-9.98,2.85-1.43-.71,8.56-.71,12.83-.71,17.82s1.42,12.12.71,15.68c-.71,3.57-3.56,7.13-.71,12.12,2.85,4.99-1.43,6.42.71,9.99,2.14,3.55,3.57,8.55,1.43,13.54-2.13,4.99-2.85,10.7-2.13,14.25.71,3.56-1.43,12.83-1.43,17.12s2.14,2.13,0,9.26c-2.13,7.13-4.99,5.71-4.99,9.98s-4.28,7.13-1.43,9.99c2.85,2.85,0,1.43,2.85,7.13,2.85,5.69,4.28,7.83,2.14,12.12-2.14,4.27-5.7,5.69-5.7,8.55s-5.71,11.4-6.41,4.99c-.72-6.42,2.85-11.42,0-14.98-2.86-3.57-5.71-6.42-7.85-10.68-2.14-4.28,2.14-9.99,2.85-13.55.71-3.57,0-17.11-2.85-20.67-2.85-3.57,2.85-6.42,2.85-11.4s5.7-10.7,4.99-14.26c-.72-3.56-4.99-2.85-7.85-6.41-2.85-3.57-7.13-10.7-4.99-14.26,2.14-3.56-2.14-7.83,2.14-9.27,4.27-1.42,10.69-7.12,10.69-7.12,0,0,3.56-2.15,3.56-6.43v-11.4c0-3.57,2.86-9.98,2.86-9.98"></path><path class="cls-6" d="M2064,1613.04c7.13,5.35,7.13,7.13,12.47,8.91,5.35,1.78,12.47,0,14.25,7.13,1.78,7.11-1.78,7.11,3.56,10.68,5.35,3.56,14.26-1.78,7.13,5.35-7.13,7.13-12.48,10.69-16.04,5.35-3.56-5.35-7.12-5.35-12.47-5.35h-16.04s-8.91,1.78-8.91,5.35-10.69,8.91-10.69,8.91l-7.13-10.69s-1.78-3.57-8.91-3.57-14.26,3.57-19.6,3.57-17.82,0-19.61-3.57c-1.78-3.56-1.78-10.7,1.79-12.48,3.56-1.77,5.35-1.77,10.69,0,5.35,1.78,8.91,5.35,12.47,5.35s7.13,3.57,8.91-1.78c1.78-5.33,3.57-8.9,0-12.46-3.57-3.57-14.25-10.69-7.13-12.48,7.13-1.78,8.91-8.91,17.82-5.35,8.91,3.57,3.56,5.35,17.82,3.57,14.26-1.78,19.61,3.57,19.61,3.57"></path><path class="cls-6" d="M1918.22,1540.33c4.27,4.27,4.99,7.13,7.84,7.83,2.85.72,6.42-2.13,9.27,3.56,2.86,5.71,1.43,10.69,4.27,11.42,2.86.7,3.57-.72,6.42,3.57,2.85,4.27,3.57,6.41,7.13,6.41s5.7.71,7.13,3.56c1.42,2.84,2.14,4.27,5.7,4.27h3.57s2.14-2.85,3.56.72c1.43,3.57.72,5.71,4.28,6.41,3.56.72,5.7-4.99,7.84,0,2.14,4.99,4.27,6.43,1.43,8.55-2.85,2.14-2.85,4.29-7.13,3.56-4.27-.7-17.11-4.27-20.67-2.84-3.57,1.42-10.7,4.27-15.69,4.27s-8.55,2.14-12.82-.7c-4.28-2.86-6.42-2.86-6.42-7.85s-.71-8.55-4.27-8.55-9.99-1.43-9.99-4.27,2.86-7.86,0-7.86-4.99-4.98-7.84-5.69c-2.85-.72-4.98-4.29-5.7-6.43-.71-2.13-2.14-5.69-5-5.69s-5.7,0-9.26-2.14c-3.56-2.15-5.71-7.14-8.55-7.14s-12.12-4.28-13.54-.72c-1.43,3.57,1.42,4.99-1.43,7.13-2.85,2.14-2.85,3.57-7.13,3.57s-2.14-4.99-7.13-4.99-13.54.72-16.4,0c-2.85-.71-4.27-7.13-4.27-7.13,0,0,.72-5.71-2.14-5.71s-7.84-.71-9.27,2.86c-1.42,3.57-6.41,4.98-7.84.71-1.42-4.27-2.14-7.84-.72-12.12,1.42-4.28.72-7.12,4.28-7.12s3.57,0,6.41-2.86c2.85-2.85,4.28-8.56,9.27-4.99,4.99,3.57,2.86,4.99,11.4,4.29,8.56-.72,10.69-3.56,15.69-.72,4.99,2.85,0,3.56,12.12,2.85,12.12-.71,16.39-2.13,18.53.72,2.14,2.85,4.28,3.56,7.84,3.56s4.28-1.42,5.7,2.85c1.43,4.29,1.43,7.13,5.71,7.13s3.56-1.42,6.42,2.14c2.85,3.57,11.41,3.57,11.41,3.57"></path><path class="cls-6" d="M1914.3,1523.04c3.56,4.45,8.91,5.35,10.69,9.8,1.78,4.46,3.57,9.81,8.02,10.7,4.45.88,8.02.88,11.58,3.57,3.56,2.66,6.24,3.56,9.81,3.56s8.02,0,9.8-4.46c1.78-4.45-1.78-8.01,1.78-8.9,3.56-.9,8.02,0,10.69-2.68,2.67-2.67,7.12-8.02,3.56-10.69-3.56-2.67-6.23,0-9.8-2.67-3.56-2.68-4.45-12.48-8.91-8.02-4.45,4.45-5.34,8.02-8.02,9.8-2.67,1.78-10.7,5.35-11.59,1.78-.89-3.56-.89-13.36-.89-13.36l-.89-11.59s-5.35-2.67-2.68-8.91c2.68-6.24,0-10.68,0-10.68,0,0,2.68.88,3.57-2.68.89-3.57-3.57-8.91-7.12-8.02-3.56.89-7.13.89-8.02-1.78-.89-2.68-.89-8.91-5.35-7.13-4.45,1.78-6.23,6.24-4.45,9.8,1.78,3.57,3.56,4.47,1.78,9.81-1.78,5.34-5.34,3.57-5.34,8.9s-5.35,8.03-2.67,12.48c2.67,4.46,4.45,5.35,6.24,8.91,1.78,3.57-1.78,12.48-1.78,12.48"></path><path class="cls-6" d="M2362.33,995.7c2.14-4.28,4.27-4.99,6.42-6.42,2.14-1.43,6.42-4.99,7.13,1.44.72,6.41,0,8.55-3.56,9.97-3.56,1.43-5.71,1.43-6.41,4.99-.71,3.57-5.7,5.71-5.7,5.71,0,0-3.57,4.98,0,4.98s9.27-4.98,12.12-.72c2.85,4.28,2.13,8.55,6.42,8.55h11.4c4.99,0,11.41-1.42,12.84,4.99,1.42,6.43,1.42,13.56.71,16.4-.71,2.85-8.55,5.71-1.42,9.27,7.13,3.56,9.98,1.43,10.69,6.41.72,4.99-.71,11.4-4.28,11.4s-11.4,2.86-12.12-1.42c-.71-4.27.72-11.4-3.57-8.56-4.28,2.85-3.56.73-5.7,4.99-2.14,4.28-7.12,7.85-9.98,7.85s-7.13,1.43-7.84-2.86c-.72-4.27,2.85-5.69,4.27-7.83,1.43-2.14-3.56-7.85-7.84-5.71-4.27,2.14-12.12,8.56-22.1,4.29-9.98-4.29-14.26-5.71-17.82-3.56-3.56,2.12-10.69-3.57-4.28-9.99,6.42-6.41,9.99-4.27,10.7-9.98.71-5.71-.71-9.26,2.85-12.12,3.56-2.85,9.27-4.27,8.55-8.55-.71-4.27,2.86-7.13,4.99-9.98,2.14-2.85,7.13-7.13,7.13-7.13l6.41-6.41Z"></path><path class="cls-6" d="M2097.86,755.81c-.36-1.42.69-2.9,1.77-3.21,1.1-.34,2.71.07,3.87-.01-.17-.94.42-1.58,1.37-1.52.73-2.76-.79-4.91,2.97-4.87.9.01,2.03-.21,2.91-.04,1.23.23,1.83,1.04,3.08.59.23-.09,1.61-1.1,1.86-1.35.74-.71.67-1.3,1.22-2.26.69-1.2,2.59-2.8,3.85-3.2,1.36-.42,4.61-.73,5.45.8.37.65.33,2.65.18,3.36-.01.41-.21.65-.59.75-.14.65-.16,1.17-.16,2.03.02,2.56-.1,4.89,2.46,5.9,1.38.54,2.35.44,3.77.52,1.18.08,1.78.82,2.9.86.82,2.4.33,5.72,3.16,6.86,2.14.86,3.22-.54,3.43,2.72.1,1.58.2,3.59-.19,5.1-.27,1.02-.76,1.77-.6,3,.21,1.64,1.67,4.27-.49,5.51-.59.34-1.1.02-1.67.18-.98.25-1.65.84-2.71.78-2.82-.15-3.18-4.13-5.33-5.55-1.76-1.16-3.2,1.31-4.59,1.92-.72-2.12.5-5.65-2.99-5.75-3.65-.11-7.6,2.54-11.3,1.22-.67,1.36.33,3.21-.06,4.62-.62,2.22-5.34,2.75-7.21,2.87-2.08.12-5.38.81-6.25-1.68-.59-1.71.18-3.7-.26-5.49-1.19-.02-2.17-.4-3.44-.4-.69,0-1.51.11-2.2.02-1.59-.2-1.88-1.08-3.31-1.87-1.12-.6-1.87-.37-2.95-.71-.96-.74-1.95-1.42-2.99-2.05-1.79-.82-3.59-1.61-5.39-2.39-3.34-2.61,3.12-3.19,4.59-3.86,2.07-.98,2.69-1.48,4.42.17,1.63,1.56,4.06,2.85,6.42,2.5,2.7-.39,1.35-1.46,2.26-3.34.62-1.28,2.67-1.61,3.32-2.69-.6.22-1.37.44-2.03.31"></path><path class="cls-6" d="M1991.82,651.57c.58,2.58-1.47,3.81-.26,6.49,1.19,2.64,3.01,3.18,5.61,3.31,1.16.05,2.41.08,3.57,0,2.37-.19,1.62-.48,3.56-1.59,1.97-1.13,4-2.64,6.4-2.91,2.9-.32,5.35,1.52,7.82,1.87,2.56.37,5.43-.09,8.04-.04,4.63.08,3.23,1.75,4.48,5.38.56,1.62,1.27,4.21,3.41,4.59-.27,1.68.7,2.01,1.24,3.14,1.01.19,1.57.79,1.7,1.78.28.72-.19,1.93.02,2.76,2.86.64,4.9,1.15,7.98,1.04,3.33-.11,3.85-.71,5.92-2.93,3.51-3.74,6.16-2.9,10.78-3.36.5-3.82-1.71-10.05,1.68-12.64,2.33-1.79,6.86-.31,9.23.79.06-3.22-.8-3.45-2.56-5.41-2.37-2.64-4.35-5.8-1.54-8.77,1.18-1.26,1.78-1.03,3.16-1.72.58-.2,1.1-.51,1.54-.94.1-.02,2.87-.66,2.72-.58.56-.33,2.59-2.01,2.89-2.52.81-1.36.24-2.3.83-3.79.92-2.36-.33-.75,1.99-1.77,1-.43,2.13-.65,3.12-1.11,3.38-1.59,6.04-4.63,10.04-4.03.96.14,2.52,1.42,3.63.75,1.7-1.03.09-2.1.76-3.65,1.42-3.24,6.09-1.41,9.09-1.42.13-2.82,3.4-2.7,2.41-6.41-2.72-.38-4.31-3.23-6.48-4.22-3.9-1.77-6.15,1.95-8.76,3.87-5.07,3.76-15.85-4.66-15.95,5.39-.9.24-2.84,1.32-3.67,1.13-2.96-.67-.44-2.36-1.87-4.65-.62-.72-1.36-1.28-2.2-1.7-.11-.61-.18-1.22-.2-1.83-1.7-1.43-3.59-.05-5.29-1.2.17-2,2.78-2.16,3.82-3.83,1.21-1.94.21-2.98-.04-4.94-.65-5.09,2.97-3.6,6.82-4.33-.04-3.28,6.13-6.83.15-7.92-1.76-.33-4.69.8-6.3-.12-2.48-1.41-1.4-4.16-3.82-5.92-2.84-2.07-8.2-1.08-11.79-1.08-3.15,0-6.44-.3-9.57.12-1.88.25-7.7,1.32-8.57,3.26-.53,1.19.57,2.7-.42,3.62-2.59,2.41-12.19-2.37-14.01.96-.39.72.46,2.03.15,2.79-.4.97-3.39,2.82-4.2,3.17-2.68,1.1-7.69-1.1-9.95.5-3.74,2.66,1.75,7.35.08,9.92-.8,1.23-3.88,1.62-5.07,2.1-2.15.85-2.72,1.92-5.06,2.14-1.45.14-2.84-.2-4.3.08-.34,2.52-1.04,7.22,2.08,8.12-3.4,1.86-5.13,4.27-3.79,8.72.26.87,1.39.71,1.69,1.68.17.54.18,3.12-.02,3.66-.52,1.37-1.95,2.54-3.41,2.8-.02,1.52-1.44,1.91-2.76,1.76-.26,1.83-.47,4.52-.12,6.35.45,2.3-.26,1.15,1.06,2.67,1.01,1.19,2.04-.21,2.52,1.53"></path><path class="cls-6" d="M2387.46,679.19c0,3.42-1.5,8.75,2.43,9.84,3.49.97,7.06-1.53,6.59-5.26,3.95-.81,7.19-.02,9.5,2.92,1.9,2.44.72,2.54,3.76,3.18,1.43.3,5.35-.47,3.62,2.75-.91,1.69-3.47.51-5.23.8-1.74.29-2.82.69-4.64.91-1.5.18-4.02-.64-5.36.12-3.21,1.78-.37,5.24-2.4,7.29-1.47,1.49-3.86-.44-5.27.75-1.21,1-.21,4.41.32,5.49.29.6,2.88,3.91,3.11,4.07,1.29.79,3.8.2,5.17.92,1.2.63,2.32,3.54,4.3,1.52.67-.67-.13-2.38.27-3.26.56-1.23,1.95-1.67,2.78-2.61.74-.83,1.45-2.26,2.4-2.81.49-.29,1.81.16,2.5-.1,1.89-.69,3.13-2.38,5.35-1.21,2.7,1.41,2.76,9.55,2.03,12.16-1.38,4.9-5.37,4.55-8.66,6.29-5.29,2.82-9.11,3.53-9.21,9.68-.03,1.82-.05,4.7-.84,6.3-.87,1.77-2.3,2.26-2.74,4.37-.33,1.57-.37,4.71,0,6.29.51,2.19,1.47,2.21,2.96,4.01,1,1.2,2.12,3.23,2.65,4.67.7,1.92,0,3.36-.24,5.57-.34,3.39.23,5.15,1.78,8.04.99,1.85,1.71,4.96,3.28,6.46,1.73,1.64,4.22,1.27,5.9,3.12,1.68,1.86,1.49,3.23,2.16,5.74.54,1.99,1.16,3.86,1.29,5.89,1.23.3,2.03.89,3.26,1.18.09,4.18,2.03,5.81,5.15,8.71.89.86,1.78,1.72,2.68,2.57.52.6,1.55,2.55,2.1,2.92,1.22.83,2.58.94,3.82,1.47,2.17.91,3.96,1.94,6.58,2.15.33.68.5,1.41.47,2.18.66.39,1.38.55,2.16.49.92,3.87,3.75,9.73,7.03,12.14,1.17.86,2.65,1.36,3.84,2.22,1.26.88,2.38,2.84,3.72,3.43,1.38.6,3.6.37,5.22,1.04,1.19.5,2.55,1.37,3.89,1.78,5.62,1.75,12.27,1.23,18.12,1.78,3.47.32,6.82.68,10.29.65,1.96-.01,5.19-.69,6.82.87,2.45,2.33.28,5.87,2.46,8.54,2.5,3.06,7.11,4.77,10.95,4.87,3.82.08,6.79-.13,7.35-4.44.16-1.24.59-5.31.02-6.37-.35-.66-1.05-.9-1.34-1.4-.78-1.32-2.1-2.51-2.96-4.36-1.81-3.87-4.13-5.11-3.78-9.96.16-2.2.26-4.56,1.8-6.34,1.17-1.33,3.05-1.54,3.66-3.4-.06-.94-.13-1.88-.19-2.81.36-1.3,1.57-1.14,1.97-2.51.65-2.25.56-5.98.85-8.42.32-2.7.01-2.14,1.71-3.89,1.66-1.72,3.42-3.61,4.08-5.83.65-2.2,1.13-7.28.44-9.61-.52-1.75-1.53-1.99-1.86-3.72-.43-2.25,1.42-3.17,1.84-5.35.43-2.18.2-2.86,1.5-4.7.34-.48,1.71-1.85,2.09-2.25.49-.51.27-1.22.98-1.78,1.03-.81,6.19-2.45,7.32-2.99,10.86-5.16,23.33-4.61,34.47-8.29.53-2.01-.75-1.78-1.43-3.4-.61-1.45.01-2.27-.34-3.61-.53-2.02-2.25-2.61-2.82-4.14-.56-1.54.75-3.9.18-5.44-.58-1.6-2.42-2.05-2.9-4.14,4.64-4.09,11.47-2.01,11.82-9.02,1.41-.01,3.91-.64,5.25-.99,2.12-.58,4.26-.74,6.25-1.34-.15.05,2.65-1.38,2.63-1.37,1.35-.78,1.8-.33,2.79-1.78.54-.79-.29-1.57.71-2.56.87-.84,4.54.16,4.87.22,5.14.98,14.12,5.59,16.85-.86,1.61-3.76.7-9.6.65-13.69-.04-2.85-.24-4,2-5.86,1.2-1.01,2.78-1.52,3.38-3.06,2.18-5.63-5.38-4.5-8.3-4.5-8.39,0-20.4.83-18.34-11.44,2.55-.18,4.27-1.89,6.99-1.93,4.03-.07,3.38,1.26,6.27,3.38,4.16,3.07,9.1.17,9.8-4.46.82-5.35-7.87-7.25-10.92-9.6-1-.77-2.04-1.18-2.71-2.43-.68-1.24-.06-2.9-.6-3.89-1.29-2.46-4.69-1.55-7.05-1.76-.78-3.42.45-5.39-3.61-6.25-2.25-.46-7.59,1.31-9.11-.77-.96-1.3,1.22-7.18,2.04-7.96,2.54-2.39,3.85-.54,4.3-4.59.62-5.53-1.98-13.27-7.99-14.27-2.74-.47-6.51,1.09-8.96-.32-4.06-2.33-3.83-5.59-4.54-9.39-2.86.2-3.69-1.75-5.93-2.95-2.67-1.42-5.96-1.18-8.78-2.01-1.42-.4-1.84-1.58-3.79-1.49.29-3.18-2.26-6.65-3.5-9.5-1.12-2.56-.24-1.96-2.87-2.85-1.2-.39-2.94-1.17-4.31-1.02.35-4.24-5.04-7.02-5.47-11.46-.14-1.43.64-4.03-.29-5.14-.75-.91-2.99-1.03-4.06-2.2-.45-.49-1.51-2.67-1.9-3.34-.38-.69-1.35-1.42-1.6-2.19-.31-.98.24-2.39-.07-3.19-.62-1.55-3.98-4.22-5.39-5.35-.87-.68-3.61-1.6-4.3-1.94-.73-.36-3.39-3.02-4.15-3.28-1.72-.57-6.54-.68-8.37.07-1.43.59-3.09,2.65-4.49,3.42-1.22.69-2.6,1.23-4.22,1.69-2.68.76-6.4,3.03-9.07,1.47-1.73-.99-2.99-3.71-4.89-4.81-2.63-1.53-8.64-1.55-11.38-2.17-3.32-.77-7.97-2.5-11.58-1.62-3.25.79-6.11,2.09-9.76,2.51-5.3.61-10.74.2-16.08.2-4.12,0-9.82.91-13.42-.81-1.85-.9-2.68-2.73-5.34-1.95-.98.29-.84,1.44-1.72,1.95-.47.27-1.84.73-2.47,1.04-2.99,1.51-4.06,4.09-6.42,6.28-3.93,3.64-8.99,3.29-13.91,3.3-3.87,0-6.58-.15-9.94,1.13-2.69,1.02-5.09,2.6-7.51,4.28-.36.25-1.85,1.33-2.13,1.67-.72.88-.83,2.18-1.27,2.76-2.1,2.76-5.45,3.38-8.9,3.52-5.56.22-7.11,1.9-9.59,6.28-.63,1.12-1.69,2.3-2.45,3.3-.74.99-1.99,3.71-3.18,4.47-1.06.3-2.14.42-3.25.37-3.36.47-6.72,1.5-10.12,1.67-1.73.1-3.44-.24-5.13.1-.94,2.27-3.1,6.53-5.53,7.96-2.08,1.21-2.79.42-3.6,2.51-.58,1.49.36,3.79.06,5.41-.4,2.14-1.02,2.87-2.92,4.37-3.59,2.84-7,2.36-6.88,7.02.08,2.99,1.96,4.74,3.55,7.35,2.31,3.8,6.72,5.07,10.49,6.61.09.68.43,1.18,1.03,1.48.76.22,3.06-.02,3.73-.05,3.32-.19,6.94-.91,9.99-2.25,6.83-3.01,13.79-9.59,21.07-4.93,1.79,1.14,5.02,1.72,6.08,3.74,1.26,2.41-.6,6.05.53,8.49,1.37,2.95,3.77,2.25,6.15,2.85,1.24-.06,2.15.43,2.72,1.46.77.25,1.56.15,2.36.37,3.99,1.13,5.74,2.12,4.05,6.76-.64.27-1.13.69-1.47,1.27-.22.61.09,1.99.1,2.67.01,2.3-.02,3,2,4.29,2.38,1.53,6.12,1.17,8.28,3.04,3.49,3.02,1.04,5.73-1.57,7.15-2.37,1.29-5.16,3.44-4.11,6.77.25.04.49.09.74.15"></path><path class="cls-6" d="M2090.73,586.51c2.84,0,8.15-1.1,10.74-.17,2.24.79,2.09,3.09,4.71,3.93,2.02.65,7.52.36,9.17-.94.47-.38,2.1-3.71,2.21-4.48.85-5.83-1.11-4.61-5.43-5.53-4.01-.86-11.97,2.66-13.79-2.61,6.09-3.78,17.03-11.21,24.93-8.18,5.12,1.98,6.34,12.1,13.41,5.57,1.94,6.82-.53,7.29-4.04,11.05-4.02,4.28-7.34,5.82-.98,8.55,1.32.58,4.43-1,5.52-.3,2.21,1.48,2.68,6.78,1.78,9.35-1.83,5.18-6.18,5.18-10.72,5.16-6.1-.04-7.22-2.51-12.54-3.54-3.88-.75-8.87-1.75-12.51-1.88-3.49-.13-9.04,4.18-12.6,2.13-2.48-1.43-3.06-9.42-5-12.34,1.01-.21,2.02-.46,3.01-.75l.33-1.43"></path><path class="cls-6" d="M2160.23,568.7c-5.85-1.61-4.45,12.71-1.91,14.51,3.85,2.74,12.47-1.15,14.37-4.22,2.29,1.84,1.69,5.77,3.89,7.31,1.99,1.38,7.88.4,10.14-.01,3.19-8.56-9.48-13.86,1.4-21.24-5.84-.56-9.02-2.17-15.4.18-1.23-.1-2.44-.2-3.66-.29-1.23.57-1.92,1.57-2.09,2.95-2.77,1.09-5.34.73-8.51.8"></path><path class="cls-6" d="M2195.88,570.48c-1.53-.35-2.2,2.61-2.49,3.49-.19.58-.6,1.15-.39,1.86.18.61.67.6.96,1.14.28.51.11.82.14,1.32.06.91-.22,2,.06,2.87.34,1.1,1.68,1.77,2.52,2.4,1.2.88,2.31,1.82,3.58,2.62.86.55,1.44,1.29,2.3,1.77.68.38,1.4.07,2.07.42.98.49,1.67,2.5,2.21,3.34,1.48,2.31,3.88,2.99,6.5,3.66,1.68.43,5.12,1.52,6.9.64,1.46-.71,2.64-2.74,2.78-4.28.2-2.22-.15-4.53-.74-6.6-.4-1.45-.94-4.09-2.24-5-1.19-.83-3.76-.11-4.57-1.75.6-.45,1.05-.95,1.37-1.65.24-.53.91-2.08.83-2.64-2.66-.48-5.76.66-8.34-.01-.57-.15-2.24-.86-2.42-1.43-.42-1.26,4.65-6.41-.02-4.79-1.24.43-1.78.79-3.08.86-.72.04-1.48-.2-2.18.05-.44.16-.83.61-1.24.87-.8.53-4.03,2.73-4.5.48"></path><path class="cls-6" d="M2151.32,592.93c.99.99,2.15,1.68,2.14,3.19,0,1.29-1.92,1.65-2.85,2.59-1.1,1.09-1.45,2.55-1.12,4.15.28,1.34,1.43,3.04,2.05,4.28.86,1.75,2.2,3.95,4.05,4.78-.45.64-.76,1.52-1.74,1.39-.53,1.98,2.05,2.37,3.54,2.44,1.2.05,1.52-.04,2.62.73,1.39.97,1.97,1.84,2.86,3.34-.13-.22,1.16,1.57,1.22,1.8.33,1.29-.43,1.74,1.29,1.99,1.7.24,3.22-.69,4.79-1.11,1.66-.43,3.08-.35,4.67.02,1.75.43,4.09-.65,5.85-1.47.67-.32,1.92-.7,2.38-1.29.58-.75.27-1.25-.03-2.14-.04-.12-.54-1.41-.6-1.46-.61-.57-.64-.27-1.47-.4-1-.16-1.85-.68-2.58-1.42-.91-.92-1.66-1.91-.84-2.79,1.62-1.72,5.15-.47,7.25-1.19.19-.77.32-3.08.06-3.89-.64-1.99-4.12-2.01-5.62-3.04-1.9-1.29.68-2.54,2.07-2.66.61-.05,1.22.21,1.77-.14.17-.28.29-.56.38-.86.23-.14.49-.24.76-.3,1.18-1.09,2.6-2.79,3.34-4.22.26-.5.47-.66.47-1.24.01-1.25-.86-1.71-1.76-2.13-1.32-.61-2.84-.94-4.32-.72-1.13.16-1.36.43-2.13,1.41-1.01,1.28-2.16,1.97-3.87,2.16-1.64.18-3.48.04-5.15-.01-.67-.01-.88-.08-1.4-.28-.53-.2-.68-.43-1.07-.63-.65-.34-1.3-.43-2.05-.5-1.61-.18-1.99.61-2.15,2.02-.05.45.25,1.53.04,1.91-.37.69-1.05.43-1.75.67-1.32.45-2.05,1-3.58.68-.46-2.09-1.06-3.09-2.83-4.33-.69-.49-1.07-.93-1.68-1.43-.95-.77-1.89-.59-3.04-.61"></path><path class="cls-6" d="M2195.52,591.86c1.17-.12,1.93.26,2.82.88.57.39.9.99,1.42,1.37.75.55,1.39.29,1.74,1.38.52,1.6-.34,3.2.79,4.67.65.87.53.46,1.79.6.82.09,1.57.45,2.28.79.34.15,2.05.85,2.28,1.11.54.63.4,2.02.42,2.81.03,1.47-.27,3.06.95,3.95.6.45,1.93.92,2.68,1,.67.08,1.26-.26,1.89.08.31.85.63,1.7.98,2.52.5,1.14.88,2.7,1.37,3.78.21.45.74,1.11.83,1.72,1.34.02,2.29,1.08,3.67,1.14,5.25.23,10.49.06,15.72.8,1.82.25,3.71.42,5.54.18,1.28-.17,2.95-.63,4.26-.22,1.27.4,1.87,1.46,3,1.74.66.17,1.72-.01,2.39-.01.48,0,2.79-.35,3.28.05.58.48.47,3.06.57,3.78.2,1.38.28,1.61-.23,2.98-.66,1.77-1.46,3.44-1.22,5.39-1.14.6-3.22.4-4.4.61-.99.17-1.89.61-2.86.75-1.37.2-2.64-.77-3.84-.07-.61.35-.93,1.24-1.49,1.68-.72.57-1.82.97-2.7,1.16-1.78.37-5.65.46-7.19-.44.21-.97-1.98-2.52-2.65-3.01-.64-.46-1.5-.95-2.3-1.14-2.86-.63-6.16.29-8.94.69-.34.03-1.05-.06-1.37.11-.49.26-.8,1.09-1.46,1.4-1.04.48-2.07.33-3.23.42-.92.06-2.67.57-3.66.22-1.4-.52-1.05-1.9-1.36-3.1-.45-1.78-2.46-4.1-4.11-4.87-.95-.44-1.81-.52-2.88-.56-1.79-.08-4.52-.37-6.19.46-.08.75-.92.73-.74,1.65-.74.15-1.72.12-2.47.06-1.24-.12-1.19-.44-2.1-1.09-1.45-1.05-2.76-1.61-3.33-3.42-.63-1.99.47-3.13,2.41-3.63.4-.11,1.02.11,1.36-.03.58-.23.64-.64,1.08-1.09.85-.86,2.18-1.72,3.14-2.49-.49-.86-.25-2.08-.82-2.85-.65-.89-2.31-.83-2.96-2.09.77-1.93,4.82-2.22,6.6-2.22.99,0,2.14.37,2.51-.59.13-.34.15-2.65-.15-2.92-.26-.23-1.78-.37-2.18-.5-.78-.27-1.69-.37-2.29-.97.04.04-.57-1.18-.57-1.18-.37-.74-.82-1.4-.93-2.26-.13-1.04-.07-2.59.3-3.44.53-1.21,1.32-1.24,1.02-2.66-.2-.91-1.38-2.85-2.21-3.4.25-1.16,2.51-1.33,3.43-1.33"></path><path class="cls-6" d="M2234.19,568.7c-.04-2.31,4.01-5.47,5.59-6.83,1.64-1.43.98-2.84,4.03-2.12,2.13.49,1.77,1.39,3.53,2.75,2.5,1.95,6.98,1.24,9.1-.88,1.89-1.9,1.49-3.05,4.46-2.56,2.05.34,3.22,2.35,5.23,2.68.4,1.4.26,2.5-.47,3.64-.46.73-1.53.85-2.11,1.73-.4.61-.57,1.72-1.02,2.46.42.74,1.05,1.23,1.91,1.49,1.17,1.54,1.78,3.27,2.7,4.63,1.44,2.16,3.28,2.33,6.07,1.94,2.27-.33,2.6-.04,3.54-2.2.5-1.13,1.1-3.76,1.16-4.98.07-1.36-1.71-2.57-1-4.52.45-1.23,1.88-2.26,3.06-2.81,4.99-2.37,11.16.55,15.54-3.58,1.49-1.41,1.22-2.44,3.5-3.16,1.46-.45,3.31-.15,4.83-.15,4.8,0,8.89,1.46,13.9.91,2.98-.32,5.22-1.67,8.24-2.32,3.07-.65,6.15-.35,9.26-.37,3.23-.03,4.38-.05,7,1.59,1.38.86,2.58,1.74,4.12,2.01,4.13.71,9.35-3.77,13.27-1.44,1.58.93,1.43,3.26,2.2,4.57.92,1.55,2.1,2.32,2.49,3.91,1.02,4.24-2.07,5.24-4.3,7.13-1.44,1.22-1.58,2.14-3.52,2.76-1.66.52-3.88.23-5.59.83-3.25,1.14-3.81,3.67-6.19,5.58-3.42,2.73-6.56,2.12-10.79,2.46-3.12.25-4.86,1.02-7.85,2.57-3.42,1.76-7.37,3.66-10.43,6-3.29,2.51-.78,1.38-2.18,3.02-1.09,1.29.22,2.14-2.69,1.79-1.59-.2-2.28-.76-3.33-2.02-1.42.49-2.67,1.27-3.78,2.33-2.55,1.63-5.21,3.06-7.97,4.28-.87,1.04-1.38,1.7-.99,3.25-3.35.25-6.21,1.74-9.44,2.48-3.27.74-8.63-1.03-11.27,1.17.89,1.85-.43,2.12-.67,3.54-.38,2.25.28,4.36-1.91,5.92-3.25,2.33-6.2.45-9.5.28.5-3.17-3.24-3.93-5.28-5.42-3.14-2.29-4.76-2.79-8.75-1.85-5.1,1.21-8.15,2.34-12.93,1.15-1.47.01-2.9-.18-4.3-.6-.61-.42-1.06-.97-1.35-1.65-1.66-.87-2.95-1.43-4.83-1.43-1.54-4.73,4.58-6.64,7.88-7.01,3.18-.35,6.24.74,9.37.94,6.03.39,10.02-3.29,15.52-3.79,1.63-5.55-4.57-5.18-7.91-5.18-4.56,0-13.49.85-16.97-2.65-3.05-3.06,3.27-7.91,4.72-10.49,1.11-2.01.78-3.68-.66-5.58-2-2.64-2.22-2.71-2.25-6.21"></path><path class="cls-6" d="M2611.12,533.05c0,2.37.08,4.76,0,7.13-.12,3.29-1.74,5.92-1.91,8.95-.24,4.52,3.21,10.42,8.1,10.38,6.21-.04,8.69-6.35,14.76-1.11.05,1.07.44,2.02,1.19,2.81,1.42.23,2.84.48,4.26.74,2.61,1.1,3.61,4.15,7.12,2.95,0-6.29,9.34-6.65,12.91-3.42,2.66,2.4,4.83,8.31,8.77,9.11,4.75.96,1.83-2.44,3.93-3.42,3.38-1.58,4.5,1.73,6.82,3.39,7.48,5.32,8.81-5.01,6.82-10.57-1.7.02-2.46-1.29-3.65-1.6-1.8-.46-3.1-.23-4.95-.36-1.97-.14-3.9.48-5.12-1.7-1.51-2.69,1.14-3.25,1.29-5.47.56-7.95-14.3-5.37-19.3-5.35-4.9.02-7.21-.42-11.48-2.24-1.75-.74-6.51-1.47-7.55-3.01-1.32-1.96.09-3.29-.95-5.08-3.79-6.52-14.78-3.93-21.05-3.93"></path><path class="cls-6" d="M2661.02,739.78c.02-1.26-.61-4.39-.12-5.48,1.1-2.46,3-1.55,5.61-1.96,2.97-.69,5.93-1.47,8.87-2.35,2.41-1.06,4.85-2.1,7.29-3.1,3.17,1.05,3.44,4.87,6.87,5.93,6.98,2.14,6.32-3.43,10.47-5.68,6.43-3.48,11.29,5.09,16.56,5.69,2.46.28,4.56-1.62,6.86-2.06,2.11-.39,4.79.12,6.96.1,3.62-.02,7.69-1.04,10.55,1.65,1.19,1.13,3.61,5.17,4.41,6.77,4.25,8.54-8.32,12.92-9.53,20.05-.62,3.7,1.41,8.83-2.1,11.76-3.48,2.91-9.77-1.27-13.54,1.07-2.04,1.27-1.62,4.01-3.85,5.21-3.1,1.67-7.51-1.85-9.57-3.35-3.43-2.49-6.76-8.41-11.49-4.93-2.38,1.74-.18,2.86-3.96,2.92-4.18.07-3.43-2.1-3.61-5.56-.34-6.79-1.81-9.31-8.87-10.72-2.06-.42-5.38,1.03-7.26.23-1.77-.78-1.92-2.43-2.9-4.1-2.51-4.31-5-9.65-10.64-8.43,2.2.34,3.7-.93,2.98-3.64"></path><path class="cls-6" d="M2937.26,864.54c5.84,1.14,4.52,6.64,5.31,10.73.94,4.89,1.9,2.61,5.52,5.26,1.89,1.39,3.04,3.98.17,5.86.54,3.65,8.79,4.87,11.91,5.14,1.13,4.4-.6,9.3.47,13.69,4.38.74,4.02.2,5.22,3.84.62,1.87.18,5.26-.87,6.77-1.42.13-2.39.85-2.91,2.12.29,1.12.22,2.21-.21,3.26-1.12,1.48-2.78,2.33-4.65,2.44,0,4.12-4.32,4.5-4.26,8.26-2.17.14-3.03,1.74-4.92,2.22-2.59.68-10.7.91-12.82,0-3.56-1.53-6.31-5.48-6.9-8.96-.83-4.82,1.86-11.7-.26-16.16-1.48-3.08-4.7-2.42-6.87-3.43-2.16-1.02-4.74-2.56-6.73-4.05-.89-.66-3.06-2.54-3.55-3.48-1.64-3.03.55-4.93,1.03-7.17.57-2.71.22-5.42.79-8.12.87-.42,1.36-1.12,1.48-2.09.4-1.41-.07-3.95-.09-5.44-.08-5.01.45-8.16,4.86-11.17,4.58-3.12,11.09.44,16.52.49"></path><path class="cls-6" d="M2882.01,814.63c0,6.35-.9,11.94,4.95,16.18,2.03,1.46,3.89,1.69,6.23,2.94,2.91,1.58,2.82,2.04,6.64,2.27,4.64.29,4.24.15,7.51,3.58,1.76,1.84,4.23,4.13,6.26,5.78,1.75,1.42,4.45,3.83,6.63,4.54,3.18,1.06,6.47-.24,9.63.62.18,1.62.35,3.16.53,4.78,4.87.66,9.14,2.71,12.65,5.65,3.96,3.3,4.94,5.18,10.26,5.34,2.46.07,4.67-.17,7.07.37,1.57.6,3.15,1.19,4.74,1.77.94.93,1.16,2.01.65,3.25,3.32,5.28,6.76,2.37,12.23,3.8.22,2.38,1.2,5.18.79,7.3-.51,2.64-1.95,3.94-2.35,6.64-.52,3.57,1.25,4.26,1.91,7.08.89,3.78-1.1,5.61,2.08,8.61.95.24,1.9.47,2.86.7,1.12,1.59.2,3.09-.09,4.65-.3,1.56-3.33,5.11-1.11,7.25,1.3,1.27,7.29.3,9.02.28,5.95-.05,6.77-.65,6.74,5.36-.02,5.46,1.77,12.4,6.11,16.05,3.25,2.72,6.57,1.78,9.98,0,4.36-2.27,5.03-4.34,5.29-8.95.16-2.82-1.21-6.03,1.66-7.26,1-.44,3.83-.02,5.08-.26-.2.04,4.22-1.44,4.02-1.34,6.33-2.91,11.92-7.13,18.26-10.38,3.16-1.62,9.35-2.31,11.4-5.61,2.86-4.61-1.24-9.55-4.82-12.29-2.08-1.61-4.31-2.98-6.49-4.29-3.03-1.81-6.87-2.27-9.09-5.3-3.37-4.62-3.7-10.92-8.83-14.39-3.33-2.25-5.04-.75-8.82.09-5.49,1.22-12.36,3.08-18.03,2.25-3.66-.53-3.91-.56-6.15-3.55-.42-1.17-1.02-2.22-1.82-3.17-.51-1.25-.68-4.39-1.16-5.43-1.61-3.51-5.08-3.88-8.6-3.96-4.79-.12-6-1.58-10.14-3.14-1.58-.24-3.17-.46-4.75-.69-2.18-1.73-.79-3.03-1.95-5.13-1.48-2.68-7.06-4.69-9.61-6-6.76-3.47-14.38-9.58-21.85-10.22-1.27-4.93.63-10.47-.44-15.42-4.74-.52-7.48-5.31-11.95-5.47-1.24-.29-2.27.04-3.11.98-1.49.83-2.21,3.43-2.95,3.82-7.54,4.04-6.67-5.65-10.71-8.23-1.35-.87-7.14-.98-8.63-.45-3.42,1.22-2.48,2.72-3.48,5.43-1.43,3.86-.27,3.66-5.35,3.57-2.97-.06-5.95,0-8.91,0"></path><path class="cls-6" d="M3466.56,1106.9c0,5.93.15,11.89-.01,17.81-.28,10.38.04,10.79-10.68,10.68-9.87-.1-28.95-15.06-35.9-3.79-2.95,4.78,1.41,17.28,4.6,21.03,1.56,1.81,4.54,1.86,6.43,4.09,1.18,1.4,2.87,5.16,3.59,7.01-.1,1.25-.2,2.51-.29,3.76-.19,2.95,1.06,5.06,3.73,6.33,1.07,2.81,6.68,2.3,3.11,7.31-2.41,3.4-16.11-.33-20.21,1.34-4.86,1.96-4.15,8.47-11.49,6.74-5.49-1.28-8.05-11.09-13.29-14.66-9.82-6.69-27.25-3.15-40.09-3.5-14.07-.39-23.38-9.61-20.61-24.13.64-3.33,4.73-2.37,2.24-7.22.16.31-7.14-3.22-7.47-3.4-8.68-4.64-4.28-5.22-6.78-14.61-16.19-1.64-28.99-16.38-45.27.36-3.07,3.15-3.01,10.17-8.38,12.67-6.93,3.21-16.35-.66-23.72,1.23-1.49,12.94-5.05,13.08-17.92,14.24-.31,6.49-4.99,11.43-4.26,17.41.33,2.71,5.13,4.51,4.47,7.1-1.29,5.05-7.18,2.8-10.74,4.26-.73.29-5.41,4.9-5.9,5.38-1.29.56-2.59,1.11-3.88,1.66-1.92,1.82-2.42,3.99-1.49,6.52-6.53,8.13-7.49,5.24-17.91,6.96-7.71,1.28-10.77,8.69-17.75,10.34-9.83,2.32-11.31-9.65-14.32,3.93-1.76,7.96,2.67,11.43,3.82,17.71.32,1.78.85,9.47.18,11.07-2.04,4.85-7.79,3.42-8.27,9.81-1.89.54-3.8.97-5.75,1.3-2.24,7.67,1.08,14.72-3.11,21.65-5.6,9.26-8.84,8.25-8.18,20.49.47,8.65,1.87,12.36,7.02,17.95,5.83,6.3,12.31,10.47,10.86,21.36-1.25,9.4-6.19,7.96-10.84,13.9-5.42,6.93-2.73,17.51-6.95,25.31-2.84,5.24-8.62,8.13-11.76,13.21-4.75,7.69-1.6,16.6-6.95,25.12-2.26,3.59-4.95,2.94-6.61,7.83-1.17,3.5.26,10.54.27,14.35,0,3.51.24,7.16-.03,10.68.12,2.45.25,4.88.39,7.33-1.16,2.45-3.13,3.85-5.91,4.17-2.39,6.15-4.03,13.84-5.24,20.51-.84,4.68.88,8.92-.73,13.54-1.32,3.78-7.09,6.29-8.27,8.74-2.23,4.61-3.76,18.83-1.77,24.32,1.32,3.64,5.33,4.55,6.59,7.67,1.7,4.22.57,9.07.72,13.53.28,7.97,2.37,13.69,4.34,21.4,2,7.82,10.03,13.07,10.59,20.62,5.32.04,5.59,2.45,6.71,6.84-.13,2.79-.32,5.57-.56,8.36,0,2.83,1.27,4.89,3.84,6.16,1.88,4.48,4.66,4.66,3.74,11.68-.46,3.51-3.09,6.44-3.82,10.42-.63,3.42.58,7.32.17,10.77-.54,4.43-4.21,10.2-4.01,14.25.27,5.31,15.62,19.69.96,18.44-1.11,9.55-5.34,12.85-1.58,21.76,1.93,4.59,4.79,3.27,4.7,9.71-.07,5.54-2.82,8.83-3.81,14.18-2.17,11.66-1.01,23.72,7.31,31.45,8.4,7.8,13.26,7.98,24.85,7.83,9.24-.11,15.76,1.75,24.16,4.37,13.18,4.1,4.48,14.02,8.64,24.23,3.2,7.86,4.01,4.52,9.96,7.06,9.11,3.88,4.92.25,7.04,10.78,1.18,5.9,4.73,18.16,9.73,22.37,7.62,6.41,16.87,5.43,24.33,13.28,2.75,2.91,4.9,5.86,8.62,7.21,2.51-.07,5.01-.23,7.5-.44,4.54,2.23,2.83,3.73,6.05,7.49,2.34,2.73,4.44,5.27,7.06,7.81,6.75,6.51,6.44,4.41,15.23,6.15,10.35,2.04,19.59,7.28,29.47,1.16,11.32-7,18.34-25.23,30.94-29.65,10.4-3.65,26.2,4.8,36.18.54,2.37-1.18,3.7-3.14,4-5.86,1.65-1.76,3.7-2.52,6.15-2.25,4.75-3.89,11.02-13.8,17.22-14.42.43-7.23,6.91-5.49,10.99-9.73,3.74-3.91,1.31-10.43,8.41-13.75,7.63-3.57,18.55-6.6,27.21-8.53.39-1.92.79-3.84,1.17-5.76,1.92-.49,3.84-.92,5.78-1.28.04-6.01,7.79-16.07,14.4-9.55,3.78,3.73-1.11,15.1,1.15,20.03,1,2.19,9.91,10.71,12.6,12.47,6.05,3.98,18,4.03,25.47,2.08.35-3.27.7-6.38,1.06-9.65,4.41-1.03,8.78-1.03,13.2,0,.89,10.68,7.18,17.16,7.64,28,.25,5.92-.04,11.89.01,17.82.06,6.42-1.46,10-2.78,15.04-2.86,10.93-4.34,19.18-4.34,31.3-.01,13.06.21,26.15,0,39.2.09,2.42.03,4.82-.16,7.21,1.33,4.7,4.47,4.79,5.7,7.85,2.16,5.35-.84,12.17,1.22,17.2,1.7,4.14,7.7,6.83,10.16,11.4,3.28,6.1,4.16,9.98,4.45,16.94.54,12.71-.5,23.03,3.68,34.74,1.26,3.55,3.51,10.96,2.83,14.36-.42,2.07-5,3.1-5.79,5.07-1.37,3.4-.56,6.44-.7,9.99-.21,5.57,1.36,12.61.17,17.99-.93,4.22-5.39,7.83-6.52,12.1-2.82,10.67-1.86,21.91-9.62,29.52-5.09,4.99-10.94,7.22-12.83,15.23-1.22,5.18.46,12.4.26,17.81-.52,13.65-11.34,17.24-14.41,28.44-1.42,5.18-.83,10.29-2.52,15.14-2,5.77-2.76,11.69-4.34,17.21-1.32,4.63-3.13,8.25-4.44,13.29-1.53,5.85-1.8,11.43-2.61,18.34-1,8.76-3.67,16.28-3.73,25.29-.06,2.36-.04,4.75.06,7.13-1.44,6.31-1.01,2.96-3.56,6.95-3.52,5.52-6.25,7.19-7.29,14.26-.99,6.77.08,14.62.08,21.49,0,0,226.71-334.78,128.32-862.57-39.21-210.3-135.45-342.18-135.45-342.18"></path><path class="cls-6" d="M2787.91,2244.65c3.56-7.85,9.26-22.81,9.26-28.52s-1.43-34.22-3.57-37.78c-2.13-3.57-14.26-14.26-23.52-17.11-9.27-2.86-20.67-17.11-32.08-22.1-11.41-5-17.82-11.41-21.39-15.68-3.56-4.28-29.23-11.41-38.5-10.7-9.26.71-14.97,5.71-27.79,4.99-12.84-.72-27.81-6.41-33.51-7.13-5.7-.72-22.81-14.26-22.81-14.26,0,0-12.83-10.7-22.1-12.12-9.27-1.43-32.08-1.43-38.5-6.41-6.41-4.99-19.24-26.38-29.22-40.63-9.99-14.26-21.39-32.8-30.66-42.06-9.27-9.27-28.52-34.93-30.65-37.78-2.14-2.86-26.38-16.4-37.07-19.97-10.69-3.56-26.38-7.13-34.93-9.26-8.55-2.14-16.39-2.14-34.22-17.82-17.82-15.68-32.79-31.37-42.77-34.21-9.98-2.86-23.53-12.12-28.52-17.11-4.99-5-14.97-11.41-19.25-16.4-4.27-4.99-15.68-13.55-21.38-13.55s-8.55.72-19.96-5.71c-11.41-6.41-29.23-2.85-36.36-2.85s-19.96,7.84-34.22,1.42c-14.25-6.41-36.35-4.28-39.21-10.69-2.85-6.41-43.48-7.84-53.46-11.4-1.92-.68,3.11,1.66,5.34,9.98.79,2.92.08,1.19,1.78,4.99.9,2,3.21.72,3.57,7.13,2.32,5.85,3.04,3.8,1.43,9.27-.7,2.39-3.91,7.67-6.41,9.98-4.08,3.77-7.69,3.96-12.12,2.85-2-.5-4.77-2.67-4.99-4.63-.18-1.68,3.92-2.85,1.78-4.99-5.35-2.14-5.72-7.55-6.77-11.76,7.13-5.71,7.06-5.75,9.98-13.55,2.56-6.85,1.43-5.34.72-9.62-8.56-2.84-5-13.9-7.13-19.61-2.14-5.69-3.57-4.99-23.53,2.86-19.96,7.84-20.68,7.84-24.24,14.97-3.56,7.13-6.41,9.98-12.83,14.97-6.42,4.99-2.85,12.12-12.83,17.82-9.98,5.71-38.13,70.21-42.41,70.21-2.78,0-2.37-23.83-1.07-43.13.7-10.42-3.31-16.57-3.57-17.81-16.4,0-10.7-2.87-14.26-6.43-3.57-3.55-13.55-6.41-16.39-6.41s-17.82-2.14-25.67-3.57c-7.84-1.42-14.26.72-20.67,1.42-6.42.72-13.54,2.14-17.82-2.85-4.28-4.99-9.27-9.98-12.83-14.26-3.56-4.27-4.27-3.57-7.84-11.4-3.56-7.85-3.56-13.54-7.13-17.83-3.56-4.27-4.27-19.95-1.42-24.94,2.85-4.99,7.84-2.86,7.84-10.7s-.72-17.82-.72-22.81-6.41-3.56,0-7.13c6.42-3.56,9.98-9.26,12.83-9.98,2.86-.71,7.85-4.99,5.71-9.98-2.14-4.99-1.42-3.56-6.41-6.42-4.99-2.85-2.86-6.41-9.27-6.41s-9.27-2.85-15.68-5.7c-6.42-2.85-12.83-2.13-15.69-4.99-2.85-2.85-12.11-2.13-18.53-4.27-6.41-2.14-13.54-2.86-17.11-5.71-3.56-2.85-12.83-4.99-14.97-9.27-2.14-4.27-.72-9.26,2.14-16.39,2.86-7.13,0-7.13,4.99-14.26,4.99-7.13,12.83-21.38,12.12-27.08-.71-5.71-4.99-6.42,1.43-11.42,6.42-4.99,10.7-7.12,9.98-12.82-.71-5.71,0-7.13,2.85-9.27,2.85-2.14,2.85-6.41,6.41-8.55,3.56-2.14,9.27-4.28,5.7-7.84-3.56-3.57,0-10.69-9.27-12.83-9.26-2.14-9.98-2.14-20.67-2.14s-15.68-1.42-21.38,2.14c-5.7,3.56-9.27,4.28-13.54,6.41-4.28,2.15-7.85,3.57-10.7,9.28-2.86,5.71-.72,4.99-4.28,10.69-3.57,5.71-1.42,7.13-4.99,10.69-3.56,3.57-12.83,8.56-17.11,8.56s-7.85,3.57-17.11,3.57-17.83-1.43-22.82-4.99c-4.99-3.57-14.25-9.98-17.82-13.55-3.56-3.57-10.69-14.96-10.69-18.53s-4.99-23.52-4.99-27.09.71-22.1-1.42-25.66c-2.14-3.56-2.14-9.27,1.42-14.99,3.57-5.69,7.84-12.82,12.12-18.53,4.27-5.71,10.69-13.54,9.98-18.53-.71-4.99,2.14-7.85,4.99-10.69,2.85-2.86,9.27-9.28,9.27-14.97s-2.14-14.98,0-20.68c2.13-5.69,4.27-13.54,6.41-16.39,2.14-2.84,5.71-5.7,12.83-9.97,7.13-4.29,10.7-7.85,17.11-9.99,6.42-2.13,9.27-7.84,13.55-7.84s28.51-4.28,32.08-2.14c3.57,2.14,8.55,3.57,11.4,7.13,2.85,3.57-.72,5.71,7.13,11.41,7.84,5.69,15.68,4.99,19.96,1.43,4.28-3.57,9.26-4.99,12.83,0,3.56,4.99,5.7,4.27,10.69,0,4.99-4.29,3.57-12.12,6.42-14.98,2.85-2.85,15.69-6.42,20.68-3.57,4.99,2.86,13.54,4.99,17.11,7.13,3.56,2.14,7.84,0,9.98,4.99,2.13,5,.72,6.42,6.42,9.27,5.7,2.85,3.56,3.56,10.69,4.29,7.13.7,7.84-.73,12.83-1.44,4.99-.7,9.99,2.14,9.99,8.56s-5.71,14.26-1.43,20.67c4.28,6.42,2.85,14.98,2.14,20.68-.71,5.69,0,11.4,2.14,14.96,2.14,3.56,4.27,4.27,4.27,8.56s.72,7.13,3.57,9.97c2.85,2.86,2.85,7.14,0,12.12-2.85,4.98-5.7,5.71-3.57,8.55,2.14,2.86,1.43,4.99-2.14,7.85-3.56,2.85-8.55,4.27-6.42,6.41,2.14,2.14,2.14,3.56,7.13,3.56s11.41.72,11.41-4.29-2.86-4.27,4.27-5.69c7.13-1.43,4.27,1.42,8.56-3.57,4.28-4.99,4.99-7.85,9.27-11.42,4.27-3.57,4.27-8.55,5.7-14.25,1.43-5.7,3.57-9.99,7.12-15.68,3.57-5.71,4.99-8.56,1.43-19.97-3.56-11.4.72-14.26,1.43-21.37.71-7.13,5.7-21.4,4.99-24.96-.72-3.56,5.7-8.55,5.7-15.68s-4.27-14.26,0-23.52c4.28-9.27,0-12.12,6.41-16.4,6.42-4.27,9.27-12.82,17.11-14.96,7.84-2.14,27.09,2.85,32.08,0,4.99-2.86,7.12-7.13,14.25-9.27,7.13-2.14,12.12-2.14,17.11-4.99,4.99-2.85,12.12-9.98,12.12-17.82s4.99-22.82,8.56-32.08c3.56-9.27,12.83-24.95,17.11-26.37,4.27-1.42,16.4-8.56,19.24-13.55,2.86-4.99,7.84-15.68,13.54-19.95,5.7-4.28,3.56-5.71,14.97-7.85,11.41-2.14,28.52-4.29,32.09-7.13,3.56-2.85,7.84-14.26,7.12-18.53-.71-4.28,3.56-11.41,8.56-14.26,4.99-2.85,17.11-7.84,22.1-7.84s17.11-.72,20.68-4.99l3.56-4.28s1.42,2.14,6.41-2.14c4.99-4.28,3.56-9.27,9.27-10.7,5.7-1.42,11.4-4.27,14.97-2.13,3.57,2.13,11.4-1.43,5.7,4.99-5.7,6.41-7.13,5.69-9.98,7.84-2.86,2.14-4.99,4.98-4.99,8.55s-.71,8.56.72,11.41c1.42,2.85-4.99,4.99,8.55,2.85,13.55-2.14,11.4-7.84,13.55-12.83,2.14-5,8.91-2.14,14.25-4.28,5.35-2.14,8.56-4.98,13.54-4.98s6.77,2.14,9.98-.72c3.2-2.85,9.98-5.7,12.83-5.7s7.48,0,7.84-1.78c.36-1.78,6.41-4.64,6.41-4.64,0,0,7.13.72,8.55-2.49,1.43-3.21,1.43-6.77,0-10.34-1.42-3.57-4.99-4.99-5.7-7.13-.72-2.14-5.7-5.35-7.84-2.86-2.13,2.51-2.13,5-4.28,6.43-2.14,1.43-2.85,3.21-4.28,4.99-1.42,1.78-2.14,1.42-3.56,4.27-1.43,2.86-6.77,6.42-8.56,6.42s-5.7,0-4.98-3.56c.71-3.56-1.43-5.34,1.43-7.13,2.85-1.78-8.55-2.15-9.98.7-1.42,2.86-3.57,2.86-7.13,2.86s-7.12,0-4.99-2.86c2.14-2.85,3.2-3.57,6.42-3.57s6.77-2.13,6.77-4.99-1.78-4.27-5.35-3.57c-3.56.72-3.56-.7-7.13,1.44-3.56,2.13-1.78,3.57-3.56,4.99-1.78,1.43-8.55,1.43-8.55-2.86s-3.21-8.55,0-10.68c3.2-2.14,2.85-5,1.42-5.7-1.42-.72,4.99-2.15,4.99-2.15,0,0,1.42-.72-2.85-2.85-4.28-2.14-7.13-1.08-8.55-2.86-1.43-1.78-2.14-4.27,0-5.34,2.13-1.07,5.7-3.22,8.55-3.22s4.27,0,5.7-2.13c1.42-2.14,3.57-7.13,3.57-7.13,0,0-.72-7.13-4.28-5.35-3.57,1.78-6.23-2.68-9.8-4.46-3.57-1.78-7.13-2.67-9.8-.89-2.68,1.78-1.78,3.57-5.35,7.13-3.57,3.57-8.91,0-14.26,3.57-5.35,3.56-13.37,3.56-13.37,3.56,0,0-3.56,1.78-7.13,3.57-3.56,1.78-9.8,4.45-11.58-.9-1.78-5.34,8.91-9.8,11.58-12.47,2.68-2.67,4.46-3.57,11.58-5.35,7.13-1.78,16.04,1.78,17.82-3.57,1.78-5.34-.89-8.02,6.23-8.91,7.13-.89,18.72-3.57,26.74-2.68,8.02.89,16.03-2.67,22.27,0,6.24,2.68,10.69.89,18.71.89s18.71,2.67,21.38-.89c2.68-3.56,2.68-4.45,8.02-5.35,5.34-.89,9.8-2.67,14.25-6.24,4.46-3.56,8.91-4.46,14.26-5.35,5.35-.89,12.47-6.23,16.93-6.23s12.47-6.25,12.47-6.25c0,0,5.34-10.69,1.78-16.04-3.56-5.34-5.34-4.45-8.02-9.8-2.67-5.35-3.57-6.23-8.91-8.91-5.34-2.66-16.04.9-17.82-5.35-1.78-6.23-1.78-14.24-6.23-16.03-4.46-1.78-11.59-8.02-13.37-11.59-1.78-3.57-3.56-7.13-8.9-11.58q-5.35-4.45-7.13-10.7c-1.78-6.23-1.78-12.47-4.46-16.93-2.67-4.45-4.45-3.57-7.13-8.91-2.67-5.35-1.78-8.91-4.46-11.58-2.67-2.68-4.45-8.91-9.8-6.24-5.35,2.68-11.58,4.46-14.26,8.02-2.67,3.57-6.23,6.24-10.69,8.02-4.45,1.78-8.02,3.57-12.47,2.68-4.46-.9-11.58-.9-14.26-3.56-2.67-2.68-.89-3.57-2.67-10.7-1.78-7.13-.9-8.91,1.78-11.58,2.67-2.68,7.13-1.78,7.13-6.24s-2.68-10.69-8.91-10.69-14.26-1.78-17.82-6.23c-3.56-4.46-3.56-11.58-8.92-11.58s-10.69,4.46-14.25.89c-3.56-3.57-5.35-2.67-10.69-3.57-5.35-.89-14.26-6.24-17.82-.89-3.56,5.35-8.9,8.91-8.02,11.58.9,2.67,5.35,3.57,0,8.01-5.35,4.47-3.56,2.68-4.45,8.03-.9,5.34,0,8.01-2.68,9.79-2.67,1.78-4.45,4.45-9.8,5.35-5.35.89-8.91,4.45-8.91,4.45,0,0-5.35,2.68-4.45,6.24q.89,3.57,6.23,5.35c5.35,1.78,8.03,3.57,8.03,8.01s1.78,8.02-1.78,13.36c-3.57,5.35-9.81,8.91-10.7,12.48-.9,3.56-4.46,5.35-8.02,8.01-3.57,2.68-6.24,3.57-10.69,7.14-4.46,3.57-6.24,4.46-10.69,4.46s-8.91-.9-11.58,3.56c-2.68,4.45-5.35,3.57-2.68,13.37,2.68,9.79,3.57,12.47,0,16.92-3.56,4.47-5.34,4.47-5.34,9.82s-1.78,9.8-7.13,9.8-8.91,1.78-13.36-1.78c-4.46-3.56-9.81-7.13-5.35-12.48,4.45-5.35,8.01-8.91,7.13-12.48-.9-3.56-2.68-.88-5.35-6.23-2.68-5.35-6.24-5.35-2.68-9.8,3.57-4.46,4.46-8.02,3.57-13.37-.89-5.35-3.57-7.14-8.91-8.92-5.34-1.78-17.82-5.33-20.49-9.79-2.67-4.45-7.13-13.36-14.26-15.14-7.13-1.78-14.26-11.58-15.15-16.04-.89-4.45-.89-9.8-6.24-9.8s-12.48-5.35-12.48-9.8,4.46-8.91,0-13.37c-4.46-4.45-6.24-7.13-1.78-14.26,4.45-7.12,8.91-17.81,15.15-16.93,6.24.9,14.26-6.23,17.82-10.69,3.56-4.45,16.93-19.59,24.95-19.59s16.04.89,21.38,0c5.34-.89,14.26-3.56,18.71-8.02,4.46-4.45,11.58-5.34,16.04-6.24,4.45-.89,10.69-2.67,13.37-8.02,2.67-5.35,14.61-6.42,18.89-9.98,4.27-3.56,12.12-9.26,16.39-5.7,4.28,3.56,5.7,11.4,9.27,9.26,3.56-2.13,2.14-8.56,8.55-9.26,6.42-.71,7.13,0,12.83-2.86,5.7-2.85,7.13-1.42,7.85-6.41.71-4.98,0-10.7,4.27-10.7s6.42-1.42,9.27-2.13c2.85-.72,2.85-5,2.85-7.85s-2.13-6.42,2.14-7.84c4.28-1.43,8.56-3.57,9.98,0,1.43,3.56,2.85,4.27,6.42,4.99,3.56.71,4.28,0,6.42,2.85,2.14,2.85,7.12,4.28,7.12,6.41s-3.56,5.71-4.28,8.56c-.71,2.85-4.99,4.28-4.99,4.28l-2.85-9.27s-2.14-7.84-6.41-5.7c-4.28,2.13-5.71,4.99-5.71,4.99,0,0-4.27,7.13,0,7.84,4.28.72,8.56,0,8.56,2.86s-1.43,4.27-1.43,7.12.71,7.84,4.99,7.84,9.27-.71,12.83-.71,10.69-2.85,9.98,2.14c-.71,4.98-1.42,5.7-6.41,5.7s-4.99-1.42-7.13,1.43c-2.14,2.85-2.86,5.7-5.7,5.7s-8.56-1.43-12.12.71c-3.57,2.14-3.57,5.7-7.13,6.42-3.56.71-9.26-1.44-9.98.71l-3.56,4.98s-8.55,2.86-6.42,4.99c2.14,2.14,2.85,3.56,9.27,4.28,6.41.71,4.28,1.42,11.4.71,7.13-.71,8.56-4.27,12.12.72,3.56,4.99,2.85,6.41,7.84,7.85,4.99,1.42,4.27-1.44,7.84,2.84,3.57,4.28,6.41,2.14,7.84,7.13,1.43,4.99,1.43,7.84,4.27,9.98,2.86,2.14,5.7,0,9.27,2.14,3.57,2.14,2.14.71,5.7,4.27,3.57,3.57,7.13,0,10.69,4.28,3.57,4.28,11.41,3.57,11.41,3.57,0,0,7.84-4.99,1.43-7.85-6.41-2.85-8.56-4.99-9.98-9.98-1.43-4.99,2.13-10.69,6.41-7.83,4.28,2.85,4.28,4.27,6.41,7.83,2.15,3.57,6.42,6.41,9.28,7.85,2.85,1.42,6.41,3.55,9.27.7,2.85-2.85,1.42-9.27,4.98-11.4,3.56-2.14,5.7-7.13,1.43-9.98-4.28-2.85-7.84-.71-9.27-6.41q-1.42-5.71-4.99-7.13c-3.57-1.43-4.27-7.13-4.99-10.7-.72-3.55-2.85-9.26,1.42-9.98,4.28-.71,8.55-2.14,9.98,2.85,1.43,4.99,2.85,4.28,4.99,8.56,2.14,4.27,3.57,4.99,9.27,7.12,5.71,2.14,8.56,2.14,12.12.72,3.56-1.42-.71-4.27,7.13-8.55,7.84-4.27,9.27-9.98,4.99-11.4-4.28-1.43-2.85-.72-5.71-3.57-2.85-2.85-4.99-5.7-9.98-6.42-4.99-.71-9.27.72-10.69-3.57-1.43-4.27,1.42-8.56-3.57-9.26-4.99-.72-7.84-7.13-7.84-7.13,0,0-1.43-4.99,1.42-5.71,2.85-.71,6.41,0,7.13-3.57.71-3.56,3.57-13.54-2.85-14.96-6.42-1.43-14.97-5.71-16.4-8.56-1.42-2.85-8.55-8.55-8.55-8.55,0,0-7.13,1.42-9.98-2.85-2.85-4.28-3.56-4.28-6.41-11.41-2.86-7.13-5.7-10.7-6.41-12.83-.72-2.14-11.41-4.28-14.97-2.14-3.57,2.14-9.27,5.7-14.26,5.7s-9.27-1.42-12.12-1.42-5.7-2.13-7.84.72c-2.14,2.85-1.43,3.56-4.99,4.98-3.57,1.43-9.27,2.85-8.55-.36.71-3.21,2.85-3.93,4.98-6.06,2.15-2.13,4.99-3.56,2.15-6.42-2.86-2.85-4.99-3.57-8.56-1.79-3.56,1.79-10.69,2.51-12.83,5.35-2.14,2.85-2.14,2.14-5.7,4.28-3.56,2.14-3.56,2.85-4.27,4.63-.72,1.78-3.56,3.2-4.64,5.35-1.06,2.14-1.78,1.42-3.2,5.35-1.42,3.92-2.13,5.35.71,8.91,2.85,3.57,6.06,4.27,6.06,4.27,0,0,3.92-2.49,3.92,2.86s-1.42,4.27-3.56,7.13c-2.14,2.85-2.85,3.56-4.98,7.13-2.14,3.55.71,3.55-5.7,7.12-6.42,3.56-5.7,2.86-12.83,4.28-7.13,1.43-12.83-1.42-10.7-4.28,2.14-2.85,6.42-.71,6.42-5.35s-.72-8.55-4.28-9.62c-3.56-1.07-7.84-5.71-8.55-7.84-.72-2.14,3.57-9.27,3.57-9.27,0,0,4.99-5.71,4.99-8.56s1.43-4.99,4.28-7.13c2.85-2.14,7.12-3.56,7.12-6.42s4.28-6.06,6.07-7.13c1.78-1.08,5.35-1.08,8.19-1.08s12.12-1.78,12.12-1.78c0,0,1.78-.35,4.98-2.84,3.21-2.51,7.84-7.84,2.14-7.84s-9.27-1.43-14.25-1.43-5.71,3.56-8.56.72c-2.85-2.85-2.85-7.13-6.41-7.13s-10.69,1.43-14.26.72c-3.57-.72-7.84,0-9.98,2.14-2.14,2.13,0,1.77-4.99,4.27-4.99,2.5-5.71,2.14-5.71,4.99s-9.27,6.41-8.56,9.98c.72,3.56,4.99,3.56,6.42,6.42,1.43,2.85,10.69,2.13,7.84,4.28-2.85,2.14.71,0-6.42,3.56-7.13,3.57-9.26,6.41-8.56,8.91.71,2.5-3.56,5.35-5.7,5.35s.35,2.14-4.28,4.27c-4.64,2.15.71.72-8.2-.71-8.91-1.43-4.99-6.41-16.75,0-11.76,6.42-5.7,7.84-9.98,9.26-4.27,1.43-3.57,1.43-7.84,1.43s-7.85,1.42-11.4,0c-3.57-1.43-6.42-.71-6.42-7.13s-4.27-.71-4.27-3.57-.72-6.41-3.57-8.55c-2.85-2.14-4.99-4.28-8.55-2.14-3.57,2.14-6.41,3.57-6.41,5.35s-2.86,3.56-4.27,5.34c-1.43,1.78-2.15,6.42-4.99,4.27-2.85-2.13-4.99-3.57-5.71-5.7-.71-2.14-4.99-4.28-4.99-4.28,0,0-2.85,1.43-6.42-2.14-3.56-3.57-5.7-6.41-4.27-7.84,1.42-1.42,5.7-2.14,5.7-6.41s-1.43-10.69-.72-12.83c.72-2.14.72-4.63,0-7.13-.71-2.49,1.43-5.35-3.56-5.71-4.99-.35-7.84-3.55-9.27-5.69-1.43-2.14-2.14-4.99,0-6.43,2.14-1.42,2.85-7.12-.36-8.55-3.21-1.42-5.35-2.85-10.34-2.85s-7.84,0-9.98-1.78c-2.14-1.78-6.41-1.06-6.41-4.63s1.42-6.41,2.85-8.55c1.43-2.15,3.56-2.86,4.99-5.71,1.43-2.85,9.98-.72,9.27-9.28-43.84,15.69-171.09,79.85-198.89,101.24-23.51,18.09-17.82,16.04-19.6,21.39-1.78,5.34-10.69,17.81-10.69,17.81,0,0-1.78,8.91-7.13,14.26-5.35,5.34-10.69,8.91-16.04,10.69-5.34,1.78-7.13,1.78-10.69,7.13-3.57,5.35-8.91,10.69-8.91,10.69v7.13c0,3.56-1.78,7.13-3.57,10.69-1.78,3.56-10.69,7.13-10.69,7.13l-8.91-5.35s-5.35-3.56-7.13,0c-1.78,3.56-10.69,12.48-10.69,12.48l8.91-1.78s7.13-7.13,7.13-1.78-5.35,7.13-7.13,10.7c-1.78,3.57-5.35,16.03-8.91,21.38-3.56,5.35-5.35,14.26-12.48,16.04-7.13,1.78-8.91,0-12.47,7.13-3.57,7.13-3.57,10.69-8.91,19.61-5.35,8.91-10.69,10.68-14.26,17.81-3.57,7.13-1.78,12.48-8.91,17.82-7.12,5.35-12.47,17.83-14.25,21.39-1.78,3.57-5.35,8.91-14.26,12.46-8.91,3.57-14.26,8.91-17.83,14.26-3.56,5.35-10.69,10.7-14.25,14.27-3.57,3.56-8.91,16.04-14.26,23.17-5.35,7.13-12.47,7.13-14.25,16.03-1.78,8.91-3.56,16.04-10.69,21.39-7.13,5.35-8.91,3.57-12.48,12.48-3.56,8.91-5.35,16.04-7.13,24.94-1.78,8.92-1.78,7.14-8.91,21.4-7.12,14.26-8.91,16.04-7.12,23.17,1.78,7.12,1.78,8.9-7.13,16.03-8.91,7.13-7.13,10.69-5.35,17.83,1.78,7.13,5.35,12.48,3.56,24.95-1.78,12.47-1.78,23.17-1.78,30.3s3.56,10.69,0,16.04c-3.57,5.35-7.13,10.69-5.35,17.83,1.78,7.12-2.49,14.25,1.78,16.39,4.28,2.14,9.27,4.27,9.27-.71s-2.14-8.56.71-12.12c2.86-3.55,7.85-6.41,7.85-6.41,0,0,4.99.71,4.99,4.99s-3.57,20.67-2.85,29.94c.71,9.27,3.56,36.36,2.13,42.77-1.43,6.43-3.56,20.67-2.85,26.38.72,5.71,4.99,6.42,1.42,17.11-3.56,10.7-2.13,11.41-4.27,17.83-2.14,6.41-.72,8.55-2.14,14.96-1.43,6.41-1.43,13.54,1.42,17.83,2.86,4.27,2.86,10.69,2.86,15.69s-1.43,11.4,1.43,15.68c2.85,4.27,2.85,4.99,5.7,10.69,2.85,5.69.71,13.54,2.85,16.39,2.14,2.85,4.99,5.71,4.99,8.56s5.7,7.13,2.14,12.83c-3.57,5.69-8.55,6.41-9.98,9.26-1.42,2.86-2.13,2.86-1.42,7.13.71,4.28.71,12.12.71,16.41s.72,8.55,5.71,12.11c4.99,3.57,7.12,7.84,8.55,11.4,1.43,3.56,2.13,7.84,4.99,10.69,2.85,2.85,4.28,0,9.27,9.27,4.98,9.26-.72,5.7,8.55,14.97,9.27,9.27,14.26,12.12,19.96,19.96,5.7,7.85,10.69,14.98,16.4,17.1,5.7,2.14,4.98-5.69,14.25,6.42,9.27,12.12,5.71,10.7,10.69,13.55,4.99,2.85,10.69,4.27,13.54,3.57,2.85-.72,9.27-4.99,12.83-3.57,3.56,1.43,17.82,3.57,19.25,7.13,1.42,3.56,2.85,12.12,7.13,16.39,4.28,4.28,9.98,6.42,12.12,9.27,2.14,2.85,0,6.41,4.28,12.12,4.28,5.71,7.13,9.98,10.69,14.97,3.56,4.99,11.41,9.98,16.4,9.98s11.4,1.43,14.26,3.56c2.85,2.14,5.7,5.7,9.26,8.56,3.56,2.85,4.99,6.41,11.41,7.12,6.41.71,2.85-4.99,11.4,3.56,8.55,8.56,8.55,5.71,9.98,12.12,1.43,6.42,4.28,9.26,7.13,12.12,2.86,2.86,7.13,0,7.84,8.56.71,8.55,3.56,9.99,3.56,14.26s-2.85,8.56,1.43,12.12c4.27,3.57,4.27,7.13,4.27,10.69s-2.85,8.56,2.85,11.4c5.71,2.87,6.42-.7,8.56,3.57,2.13,4.28,2.85,2.14,7.13,4.28,4.28,2.14,5.7-.72,7.84,2.14,2.14,2.85,6.42,6.41,5.7,12.11-.71,5.7-8.55,6.42,1.43,11.41,9.98,4.99,14.97,3.57,17.82,6.41,2.85,2.86,2.85,1.42,7.12,6.41,4.28,5,11.41.72,17.12,9.99,5.7,9.26,12.12,2.13,13.54,8.56,1.43,6.41,4.28,1.42,9.98,4.27,5.7,2.86,12.12,1.43,10.69-5.69-1.43-7.13-2.86-11.41.71-13.55,3.57-2.13,4.99-2.13,6.42-4.99,1.43-2.85,4.28-7.13,8.55-4.99,4.28,2.14,7.13,3.57,10.69,6.41,3.57,2.86,7.13,4.28,9.98,12.84,2.86,8.55,7.13,15.68,9.27,19.25,2.14,3.57,16.49,9.27,15.07,17.11-1.43,7.84,2.85,15.68,0,20.67-2.85,4.99,1.32,6.41.61,14.26-.72,7.84,10.69,16.39,8.56,20.67-2.14,4.27-19.25,17.11-18.53,22.1.71,4.99-12.83,2.85-16.4,8.55-3.56,5.71,4.28,5.71-.72,13.54-4.98,7.85-6.41,1.44-9.27,4.28-2.85,2.85-7.84-.72-10.69,4.27-2.85,4.99-2.85,5.71-9.27,7.85-6.42,2.14-2.86-2.86-13.55,6.41-10.69,9.27-4.99,4.99-3.56,12.12,1.42,7.13,4.99,10.69,1.42,14.97-3.57,4.27-11.41,5.7-9.27,10.68,2.14,4.99,3.57,9.27,0,14.98-3.56,5.69-4.28,6.41-1.43,12.82,2.86,6.41,9.28,6.41,9.28,10.7s0,6.41,1.42,9.98c1.42,3.57-2.14,5.71-4.99,8.56-2.86,2.85-11.41,3.56-12.12,7.12-.71,3.57-3.56,10.7-.71,15.69,2.85,4.99,0,11.41,5.71,21.39,5.7,9.98,14.25,20.67,19.24,25.66,4.99,4.99,13.54,11.4,15.68,19.25,2.15,7.84,9.27,9.26,12.83,17.11,3.57,7.84,9.27,7.84,10.69,19.25,1.43,11.4,3.57,11.4,6.42,20.67,2.85,9.26,7.12,9.26,9.27,20.67,2.13,11.4-2.86,3.57,4.27,21.39,7.13,17.81,12.12,8.55,15.68,23.52,3.57,14.97-.71,12.12,11.4,18.53,12.12,6.41,13.55,1.43,23.53,17.47,9.98,16.04,4.99,16.75,19.96,20.31,14.97,3.57,25.66,7.85,37.07,16.4,11.4,8.56,14.25,12.12,20.67,14.26,6.41,2.13,16.39,4.27,20.67,12.82,4.27,8.56,10.69,7.13,11.4,17.11.6,8.44-1.09,21.51.87,35.65,117.52,34.44,218.88,104.64,297.62,227.22,1.2-.49,2.51-.94,4.48-1.24,9.26-1.42,23.52-3.57,29.94-10.69,6.41-7.13,19.25-18.53,24.95-19.25,5.7-.7,17.11-6.41,25.66-17.11,8.55-10.7,17.82-17.82,21.38-19.96,3.57-2.14,13.54-9.98,17.11-14.98,3.57-4.99,11.41-2.13,11.41-12.82s3.57-32.09,3.57-32.09c0,0,2.86-12.82,6.42-14.25,3.56-1.42,14.97-2.14,17.82-7.13,2.85-4.99,9.98-16.4,15.68-17.82,5.71-1.42,2.85,3.56,17.11-2.14,14.25-5.69,17.82-12.82,23.52-12.12,5.71.72,18.54-2.85,22.1-3.57,3.57-.71,11.41-4.27,14.26-7.12,2.85-2.85,10.69-11.41,24.95-7.85,14.26,3.57,19.25-18.53,18.53-22.1-.71-3.57,7.13-9.27,12.12-16.4,4.98-7.13,12.83-20.67,15.68-23.52,2.85-2.85,16.4-3.57,15.69-24.95-.72-21.38,1.42-41.34.71-45.62-.71-4.28,4.28-36.36,5.71-39.22,1.42-2.85,22.1-19.24,26.37-26.37,4.28-7.13,18.54-17.83,24.24-25.67,5.7-7.83,22.1-23.52,25.67-31.35"></path><path class="cls-6" d="M3102.99,789.67c-2.56,4.04-3.77,5.4-3.57,10.69.15,4.11.45,3.85-3.07,5.84-1.97,1.11-5.03,3.35-7.39,3.49,1.2,2.8,3.1,5.71-.59,8.16-1.53,1.01-3.72,0-5.47.64-2.61.98-3.29,3.55-6.32,3.57-.36,2.53-.11,6.17-3.39,6.6-1.41-2.93-4.64-3.79-6.32-6.41-1.88-2.94-.5-4,.91-7.17,1.52-3.38,2.4-5.73-.39-9-1.49-1.73-4.93-2.79-5.17-5.3,1.76-.16,3.78-.97,4.75-2.53,3.01-4.85-2.17-4.66-4.67-6.28-3.96-2.59-1.65-9.75-2.48-14.35-.49-2.74-1.64-1.36-.09-4.46.69-.55,1.38-1.1,2.07-1.65.73-3-3.53-4.12-5.52-5.02-3.12-1.43-6.42-3.6-9.92-3.65-4.55-.05-17.67,5.67-20.43.16,1.39-1.72,1.16-4.18,2.06-5.42,1.18-1.65,4.52-2.12,5.21-3.93,1.3-3.41-4.41-7.03-6.86-8.5-1.33-.79-3.77-1.2-4.9-2.15-2.16-1.77-3.14-3.07-5.8-4.49-2.58-1.39-4.56-4.56-7.12-5.58-2.78-1.1-5.87.27-8.73-.62,1.38-3.1,2.1-2.58.02-5.38-1.88-2.55-10.63-3.74-10.81-6.7,2.37-1.83,4.86-3.54,3.23-6.94-4.36-1.06-10.39,1.43-14.09-1.97-2-1.83-1.43-2.26-2.11-5.39-.42-1.95-1.38-4.45-2.77-5.46-3.62-2.65-12.55,2.26-16.92-.19-.72-.4-3.04-3.7-3.56-4.54-2.73-4.36-3.48-6.22-1.51-10.79-6.79-.47-14.66-7.7-20.16-10.93-5.04-2.93-12.36.02-8.13-6.9,1.08-1.77,3.42-2.36,1.42-5.15-3.33-1.5-6.54-3.21-9.64-5.13-1.91-1.16-3.88-2.22-5.88-3.16-4.72-4.66-.53-6.27,3.41-8.34l3.57,1.78c.1-.48.2-.96.3-1.44,2.78-.44,5.84-2.95,8.69-2.25,2.09.51,4.28,3.39,5.71,4.99,2.25,2.51,4.57,5.5,6.69,7.6,2.82,2.81,4.38,4.99,8.91,5.35,7.44.6,8.46,9.6,16.04,10.78,1.51.24,4.11-.81,5.47-.22,2.26.97.86,1.43,2.04,3.22,1.17,1.79,2.26,3.31,3.22,5.38.38.82,1.5,4.69,2.14,5.42,5.53,6.22,18.67-2.96,22.4,6.12,1.28,3.12.05,5.93,1.66,8.95,2.1,3.93,4.06,3.29,7.56,5.25,4.08,2.3,5.69,3.98,10.77,3.25,7.06-1.01,1.33-1.99-.22-5.29-2.93-6.27,5.12-12.48,10.53-12.91.26-.97.47-1.94.65-2.92,1.92-.56,8.36-1.3,10.07-.04.16.12,1.71,4.99,1.72,5.12.34,3.59,1.11,1.63-1.62,3.83-5.75,4.63-8.29,5.91-6.6,13.76.34,1.63,2.15,9.93,3.65,10.84,1.17.7,3.59.08,4.86.04,4.67-.16,18.59-2.15,22,1.26,2.68,2.68.42,6.22,1.14,9.47,1.16,5.26,7.91,4.97,12.24,5.61.16,3.23,2.99,2.56,4.11,4.95.43.91.17,6-.46,6.87-2.5,3.41-13.34.64-6.89,7.13,1.75,1.76,3.34,1.52,5.38,2.54,1.82.9,3.37,2.75,5.25,3.25,3.63.98,9.72.13,12.21,3.84,1.34,1.99-.13,4.72,1.61,6.89,1.12,1.43,3.1,2.38,4.53,3.4,4.43,3.13,4.04,8.26,1.34,12.5M2955.11,627.46c.48,3.2-.13,6.24-3.51,7.26-4.37,1.31-6.7-1.97-10.43-2.21-.23-.96-.47-1.92-.7-2.87-2.18-.14-3.02-1.81-4.92-2.22-2.57-.56-6.52.06-9,.49-5.74.98-14.38,4.14-17.95-2.14-.77-1.36-.79-6-1.96-6.9-1.4-1.06-5.13-.31-6.81-.28-2.73.06-4.28.7-5.92-1.68-2.24-3.25.72-3.68.91-6.87.95-.24,1.92-.47,2.88-.68.11-.49.23-.98.33-1.45l1.78,1.78c5.89,0,14.85-1.91,19.16,2.24,2.85,2.75,3.25,4.77,7.58,4.93,4.36.15,6.38.48,10.25,2.18,2.82,1.24,6.13,1.94,9.35,2.74,4.81,1.19,8.1.13,8.94,5.7M3405.66,1010.98c-17.52-27.4-98.24-139.13-226.92-245.36-132.77-109.61-278.91-171.27-278.91-171.27-16.63,0-33.26-.7-49.9-.71-4.32,0-6.77.25-10.3-1.78-2.33-1.34-.75-1.33-3.91-1.82-1.16-.16-4.37-.39-5.47-.04-2.34.73-4.03,2.98-6.43,4.04-3.6,1.61-10.23,1.96-11.43,6.65-.84,3.26,2.43,6.55,5.37,7.3,1.72.43,3.79-.65,5.48-.25,3.88.93,2.06,2.14,3.57,5.17,1.43,2.89,3.13,3.65,5.31,6.04,1.2,1.33,2.7,3.09,3.58,4.61,1.97,3.37,1.01.92.36,4.36-.43,2.33-1.48,7.74-.08,9.91,1.14,1.76,2.58,2.06,3.74,4.35.98,1.93.72,4.08,2.6,5.51,3.49,2.69,6.9.59,10.78-.16,1.56-.31,4.13-.97,5.77-.57,4.48,1.12,2.74,4.08,3.87,7.75.84,2.72,2.38,5.37,3.27,8.1.62,1.91,1.05,3.79,1.75,5.7,1.07,2.89,2.11,5.79,4.85,7.62,2.98,1.98,5.69.53,9.01,1.65,4.83,1.65,5.52,4.63,6.08,9.1.67,5.15,2.16,10.22,2.87,15.36.21,1.47-.21,5.48.71,6.94,1.83,2.89,5.46,3.63,8.48,3.88,2.65.23,5.79-.09,8.28,1.21,3.11,1.63,1.79,2.63,3.77,4.72,1.16,1.22,2.5.67,3.67,1.6,2.34,1.88,1.71,2.49,2.14,5.29.43,2.82,1.17,4.02,2.32,6.43.16.34,1.56,3.97,1.59,4.02,1.85,1.98,6.87,1.84,8.3,3.78,1.47,2.02.3,8.12.71,10.69.24,1.51.72,7.18,1.69,8.37,1.68,2.06,4.65,1.51,6.77,1.96,2.24.48,4.66,1.18,6.82,1.81,4.14,1.21,2.69-.77,4.36,4.49,1.41,4.43,1.38,2.29,4.07,4.82,1.5,1.42,1.62,3.31,3.01,4.67,1.81,1.74,8,2.93,10.35,3.46,1.92.44,3.43.13,5.33.35,2.51.3,3.02,1.39,5.22,1.93,2.25.54,6.73.26,9.04-.06,3.24-.44,5.1-2.11,7.17-4.99,2.17-3.02,1.93-3.53.41-7.42-.72-1.82-4.29-8.6-2.04-10.52,1.56-1.33,8.47-.61,10.54-.31,2.99.43,5.46,1.62,8.04,3.6,1.78,1.37,2.94,3.54,4.71,4.91,2.94,2.27,6.27,3.43,8.99,5.79,2.17,1.87,4.42,3.49,6.65,5.3,1.06,1.27,2.26,2.39,3.61,3.36,1.85.68,3.66-.38,5.43.56,2.4,1.27,2.76,4.37,3.88,6.4,2.41,4.39,5.78,9.74,6.5,15.03.68,5.06-2.55,4.9-6.99,5.01-2.59.07-5.12.38-6.67-2.16-1.53-2.51-.41-5.61-2.06-8.46-2.22-3.83-3.91-6.72-7.34-9.17-4.35-3.1-9.76-10.68-16.02-8.94-3.89,1.09-4.22,5.36-3.58,9.06.89,5.04,5.89,11.78,10.33,14.78,4.03,2.72,10.13.9,14.39,3.44,2.33,1.38,3.14,4.47,3.93,6.78.8,2.36.87,3.1,2.66,4.94.63.28,1.26.56,1.88.84.72.78,1.13,1.68,1.23,2.73,1.5,1.64,2.47,3.94,3.93,5.35,2.08,2,4.7,1.97,6.37,3.93,1.62,1.89,2.13,4.66,1.78,7.21-.54,3.84-2.03,3.63-4.08,6.61-1.34,1.91-2.45,5.26-1,7.7,1.64,2.76,4.85,2.67,3.34,7.12-.71,2.1-3.7,3.04-3.82,5.27-.06,1.43,3.74,6.24,4.78,7.12-5.18,3.92,4.12,10.12,6.18,12.39,2.75,3.03.32,5.64,2.06,8.64,2.04,3.54,4.82,2.55,5.02,7.49.1,2.42.75,6.75.05,9-.55,1.76-1.51,1.61-2.36,2.99-.63,1.02-1.01,2.75-1.69,3.66-2.13,2.88-4.26,2.64-1.86,6.22,1.82,2.73,5.79,3.93,3.77,8.17-2.18.06-4.45,1.63-6.42,2.48-.48.82-1.18,1.31-2.13,1.45-1.63.35-3.62-.95-5.13.2-.26.96-.48,1.9-.66,2.87-1.11,1.1-3.35,1.49-4.24,2.52-1.32,1.5-1.37,6.62-.89,8.6.74,3.1,4.77,3.4,3.37,6.68-1.07,2.52-4.65,2.56-6.85,2.23-2.73-.41-4.34-2.23-7.03-1.59-1.96.47-6.06,5.42-6.82,7.3-2.74,6.86,2.66,7.49,6.77,10.27,4.22,2.85,6.36,7.62,11.09,10.23,2.7,1.5,5.04,3.05,8.38,2.45,4.23-.74,8.25-4.42,12.64-5.15,3.46-.58,5.41.34,7.18,3.16.41.66,1.97,5.77,2.01,6.87,4.39.64,7.32,2.22,11.5,3.83-3.03,2.15-.21,4.93.71,7.12.8,1.88-.42,2.44,1.22,4.14,1.97,2.05,4.6,1.27,7.26,1.26,6.05-.04,31.6-1.13,24.03,9.39-2.5,3.48-3.88,3.55-4.08,8.48-.16,4.01,3.47,8.38,1.46,12.12-.53.98-2.12,1.56-2.8,2.49-1.16,1.55-.61,3.33-2.55,4.58-1.51.98-3.62.19-5.25.26-3.82.19-8.32,1.27-12.03,2.24-.13.97-.28,1.95-.47,2.92-5.38.67-8.23,3.14-13.13-.16-2.44-1.64-3.55-3.65-7.12-3.34-4.91.46-3.98,3.44-6.54,6.5-3.99,4.78-8.31.5-13.55.83-5.04.31-1.77.48-4.32,3.19-2.1,2.23-3.49,2.08-6.43,2.49.11,2-.71,2.64-1.98,3.76-2.95,2.59-3.06.66-3.69,4.8-.44,2.82,1,3.81,1.41,5.79.45,2.15-.28,4.79.31,6.82,1.73,6.04,7.02,1.2,10.42,3.7,3.42,2.51,2.99,10.57,3.79,14.08.54,2.37,4.69,6.41,7.17,7.17,2.45.74,3.81-.85,5.97,1.16.8.74,2.37,3.58,2.63,4.5,1.19,4.1.49,9.52.41,13.85-.07,3.93,1.53,13.31,6.82,12.78,1.98,6.46-2.02,14.93.23,21.16,2.22,6.15,7.87,1.59,12.2,3.84,3.83,1.99,4.63,7.05,5.7,10.34.91,2.79.69,4.66,3.52,6.78,1.1.21,2.18.45,3.26.74.94.73,1.46,2.26,2.48,2.81,1.83,1.01,4.76.36,6.78.36,1.2-.02,2.4-.01,3.6.05,1.56-.2,2.86-1.23,3.93-1.43,2.96-.54,5.73-.57,8.21,1.77.2.96.4,1.92.6,2.86,1.39.91,3.51.31,5.05.3,3.08-.01,4.62-.53,7.56-1.33,2.11-.58,6.6-2.9,8.52-1.96,3.79,1.87,1.88,5.29,6.68,1.56,2.07-1.63,4.29-3.96,4.31-6.85,2.22-.07,3-1.76,4.9-2.18,2.28-.5,4.94.46,7.26.12,3.71-.55,2.34-.09,3.97-3.17.96-1.82,1.61-3.86,3.08-5.42,2.42-2.53,6.76-3.69,9.4-5.65,4.72-3.52,4.86-6.97,4.9-12.51.03-4.72-2.51-7.56-1.82-12.51.34-2.44,1.39-3.06,1.92-5.22.51-2.08-.13-5.06-.1-7.21.04-2.8-.09-3.62-1.29-5.85-.57-1.06-1.96-3.49-2.67-4.45-1.15-1.56-2.26-2.17-3.17-3.88-1.41-2.67-.95-5.91-5.04-5.75-.47-3.58-1.98-6.79-2.14-10.38-.16-3.66-1.27-5.46-1.77-8.82-.63-4.26,1.05-7.35-2.14-10.77-1.07-1.15-3.29-1.82-3.39-3.58,0-.11,1.87-5.2,1.95-5.4,2.71-6.24,5.26-12.94,1.83-19.55-.43-.83-1.98-2.62-1.96-3.56.02-1.58,1.69-1.96,2.06-3.48.67-2.78.69-9.89,0-12.65-1.08-4.33-3.5-4.32,1.75-7.08,3.14-1.64,5.08-1.77,8.85-1.75,4.35.03,7.93.08,12.13-1.3,3.03-.99,2.86-.26,4.43-3.11,1.95-3.55.94-2.17-.52-4.91-1.67-3.12-3.62-5.74-2.3-9,.49-1.21,1.88-1.44,2.39-2.98.49-1.53-.07-3.96-.47-5.43-1.39-5.07-1.97-5.45,3.96-5.35,3.43.06,8.58-1.21,11.22,1.24,1.93,1.81,1.69,5.49,3.34,7.27,3.34,3.57,7.06.58,10.52,2.05,2.56,1.08,2.27,4.66,3.83,6.87,2.79,3.97,5.92,3.7,10.34,3.91,4.62.22,5.63,1.29,7.52,4.96,1.15,2.24,2.1,5.08,4.83,5.87,8.67,2.51,20.45-4.05,26.84,3.48,1.93,2.26,2.87,3.46,5.76,4.91.79.4,2.87,1.63,3.52,1.82,1.7.5,3.44-.14,5.04.31,3.35.97,2.69,4.17,5.02,5.56,3.5,2.09,10.27-.95,9.28-5.51-.64-2.93-4.47-3.92-5.17-7.09-.88-4.06,2.92-4.54.17-9-1.3-2.1-3.5-3.97-5.3-5.66-1.81-1.69-3.74-3.22-5.83-4.58-3.51-2.3-5.32-1.68-8.94-2.52-4.04-.95-8.28-2.66-12.41-3.31-7.42-1.17-15.73,3.8-23.31,3.78-5.26-.02-6.57-4.21-5.37-9.08.54-2.19,1.6-2.74,1.92-5.21.25-1.92.42-5.32.05-7.21-.73-3.67-4.02-5.57-5.92-8.39-1.18-1.73-.45-2.3-1.21-4.04-1.06-2.47-3.2-3.01-4.22-5.3-1.49-3.31-.29-1.69.08-4.05.82-.73,1.33-1.61,1.52-2.69-.53-.68-.93-1.43-1.21-2.26,1.73-4.65,7.24-.3,8.69,2.62,1.89,3.79,1.81,8.53,3.53,12.1.93,1.92-.02,2.38,2.09,3.26,1.79.75,6.7-.1,8.64-.13,3.6-.04,8.16.69,10.74,3.42,1.87,1.99,1.38,4.01,3.74,5.53,2.32,1.49,6.98,1.69,9.7,1.83,4.81.24,8.96-1.09,13.56-1.52,3.3-.3,3.5-.21,5.87,2.58,4.46,5.27,1.88,8.81,3.54,14.49.72,2.5,3.2,5.27,5.29,7.04,3.03,2.55,10.72,4.58,10.68,9.01,4.18.16,3.33,4.68,5.46,7.2,2.2,2.62,3.64,1.7,6.72,2.05,5.54.62,6.57,7.46,12.13,7.52.13,3.11,3.55,6.03,5.61,8.12,1.43,1.45,3.7,2.4,5.03,3.96,1.71,1.99,1.7,4.19,3.38,5.92,1.11,1.13,2.79.66,3.75,1.6,1.04,1.03,1.31,3.21,2.59,4.54,2.69,2.8,6.17,2.89,9.97,1.97.47-5.35,3.66-9.92,1.69-15.82-.68-2.05-2.74-4.53-4.5-5.8-2.19-1.57-5.67-2.19-7.26-4.77-1.56-2.51-1.35-5.18-3.48-7.69-1.75-2.08-3.91-3.31-6.23-4.42-5.14-2.47-9.23-6.25-5.57-12.57-2.86-2.97-7.28-1.76-10.51-3.43-3.37-1.74-4.88-3.86-6.34-7.12,3.15-1.76,1.26-4.62-1.78-4.37-.39-1.42-.82-3.62-.43-5.08.67-2.48,2.73-2.26,3.47-3.91,1.71-3.83-4.36-4.97-4.94-8.07,5.44-3.68,9.65-6.23,14.56-.84,2.1,2.34,2.73,2.48,3.12,5.7.32,2.7-1.39,8.17.27,10.43.93,1.26,5.58,1.14,6.5,2.39,1.75,2.39-.31,6.05,2.06,8.64,2.06,2.25,3.57,1.84,7.16,1.76,1.5-.04,3.51-.53,4.91.25l.74,1.43c1.14,1.7,2.73,2.78,4.74,3.27,1.51.02,2.27.71,2.26,2.08.39,1.21-.13,4.09-.17,5.43-.09,4.29-.63,4.79,3.52,5.38,2.93.41,6.07-.46,8.99-.07,5.31.7,3.19,2.95,5.71,6.81,2.67,4.13,10.32,6.57,12.17.44,1.66-5.58,1.79-7.32-3.96-15.81"></path><path class="cls-3" d="M1907.87,1839.43c3.14,4.13,6.45,1.07,15.16,13.08-4.79-7.39-2.18-1.23.86-5.85,3.05-4.63-6.96-3.39-4.78-5.55,2.17-2.15,6.53.3,11.76-8.92,5.21-9.25,11.31-5.56,12.19-6.17,8.94-6.33-.87-4.92,3.05-9.55,5.46-6.44-.83-12.54,2.61-14.16,6.53-3.09,6.4-8.24,17.85-11.4,17.84-4.93-2.16,3.69,9.27,4.55-2.69-.52,6.83-11.02,12.49-11.02,8.27,0,7.84-2.15,28.3-10.17,20.46-8.01,1.75-11.08,11.73-11.08s3.06-3.7,13.05-1.55c10.02,2.16,9.58,5.87,1.19,10.98-5.95,3.19-13.8,6.96-13.8,6.96l-14.35,18.42s-1.29-1.85-6.52,5.24c-5.22,7.09-.43,6.47-5.66,12.94-5.23,6.46-11.32,12.94-10.44,14.47.86,1.55,6.08-1.53,7.39,1.85,1.31,3.39,5.53-3.45,6.52,6.16,1.32,12.63,5.81,18.11,3.93,22.79-3.48,8.64,10.29,9.64,18.26,15.1,12.62,8.64,15.68-4,29.64,4.32,12.47,7.46,4.75-.92,15.64,8.93,10.89,9.86,16.98,8.94,33.53,3.71,6.34-2.01,11.82.45,5.66,5.53-5.23,4.32-.43,5.86-4.36,9.25-3.9,3.4,2.49,6.57-2.16,13.56-3.5,5.23,1.72,12.01,1.29,19.72l6.1.31c5.23,8.94,7.03,7-5.19,24.45,7.83-1.35,13.45,12.72,14.75,35.26-13.05.67-.79-13.82-9.55-13.82-3.5,0-.87,3.09-5.22,3.7-4.32.62-1.3-4.32-7.39-3.7-6.1.61,5.23,3.39-6.96,4.32-12.18.94-18.74,2.16-30.5,4.01-.43,4.32-3.46,7.72,5.26,7.72s9.56,12.92,4.33,10.78c-5.22-2.18-18.71-1.56-14.35,7.99,4.33,9.54,16.52,20.32,12.19,25.27-4.37,4.91-3.6,49.26-12.98,65.16-16.22-9.71-13.59-4.76-4.47-18.66,9.16-13.85-3.03-18.8-11.75-14.15-8.69,4.6-12.19-7.11-25.22-.3-13.05,6.74-14.8-1.84-24.37.91-3.49-21.26-8.7-11.39-11.34-20.64-2.6-9.25-12.17-1.84-16.08-14.46-3.93-12.65-10.03-12.03-21.34-13.59-13.93-7.05-27.87-13.24-25.25-8.61,2.61,4.62-20.03-.31-23.94-6.46-3.91-6.19-13.7-8.58-28.82-15.08,3.37-5.21-9.05,3.38.09-6.48,9.14-9.87,13.07-2.46,15.23-6.8,2.18-4.29-8.26-6.13-3.91-11.7,6.62-8.43,22.3-3.98,21.32-10.17-.43-2.76,10.46-15.08,18.3-18.17-6.1-2.78,3.91-4.94-.44-4.94s-1.32,3.09-8.27.93c-6.96-2.15-3.93-6.47-1.75-10.17,2.18-3.67-.43-13.85-1.75-22.47-1.3-8.64-6.22-2.75-3.04-6.48,1.31-1.53,10.02-3.07,6.11-9.55-7.15-11.8-2.2-3.7-2.61-8.64-.85-9.53-4.23-5.45-4.79-7.38-1.75-6.17-4.78-1.55-5.23-4.93-.43-3.4-3.17-1.77-2.31-5.16,2.61-2.78,4.05-3.78,3.63-5.93-.87-4.32,2.62,1.84,10-3.4,7.41-5.24-2.18-3.69,3.04-7.71,5.23-4-3.48-1.53-1.73-5.86,1.73-4.31-3.49-1.23.94-7.53"></path><path class="cls-6" d="M3386.23,2504.69c175.75-216.37,281.23-492.13,281.23-792.61,0-694.91-563.33-1258.24-1258.24-1258.24s-1258.25,563.33-1258.25,1258.24c0,301.86,106.39,578.8,283.59,795.62,16.67-4.04,33.25-7.93,49.76-11.69-179.37-211.41-287.79-484.94-287.79-783.93,0-669.75,542.94-1212.68,1212.69-1212.68s1212.68,542.93,1212.68,1212.68c0,297.64-107.41,570.08-285.34,781.11,16.47,3.68,33.04,7.53,49.67,11.5"></path></g></svg>